{
  "asset": {
    "generator": "glTF-Transform v4.5.0",
    "version": "2.0"
  },
  "accessors": [
    {
      "type": "SCALAR",
      "componentType": 5125,
      "count": 187776,
      "normalized": false,
      "byteOffset": 0,
      "bufferView": 0
    },
    {
      "type": "VEC3",
      "componentType": 5120,
      "count": 70416,
      "normalized": true,
      "byteOffset": 0,
      "bufferView": 1
    },
    {
      "type": "SCALAR",
      "componentType": 5125,
      "count": 541056,
      "normalized": false,
      "byteOffset": 751104,
      "bufferView": 0
    },
    {
      "type": "VEC3",
      "componentType": 5120,
      "count": 339775,
      "normalized": true,
      "byteOffset": 0,
      "bufferView": 2
    },
    {
      "type": "SCALAR",
      "componentType": 5125,
      "count": 2301000,
      "normalized": false,
      "byteOffset": 2915328,
      "bufferView": 0
    },
    {
      "type": "VEC3",
      "componentType": 5120,
      "count": 1533860,
      "normalized": true,
      "byteOffset": 0,
      "bufferView": 3
    },
    {
      "type": "SCALAR",
      "componentType": 5125,
      "count": 1460628,
      "normalized": false,
      "byteOffset": 12119328,
      "bufferView": 0
    },
    {
      "type": "VEC3",
      "componentType": 5120,
      "count": 942330,
      "normalized": true,
      "byteOffset": 0,
      "bufferView": 4
    },
    {
      "type": "SCALAR",
      "componentType": 5125,
      "count": 609084,
      "normalized": false,
      "byteOffset": 17961840,
      "bufferView": 0
    },
    {
      "type": "VEC3",
      "componentType": 5120,
      "count": 356851,
      "normalized": true,
      "byteOffset": 0,
      "bufferView": 5
    },
    {
      "type": "SCALAR",
      "componentType": 5125,
      "count": 638898,
      "normalized": false,
      "byteOffset": 20398176,
      "bufferView": 0
    },
    {
      "type": "VEC3",
      "componentType": 5120,
      "count": 357786,
      "normalized": true,
      "byteOffset": 0,
      "bufferView": 6
    },
    {
      "type": "SCALAR",
      "componentType": 5125,
      "count": 395463,
      "normalized": false,
      "byteOffset": 22953768,
      "bufferView": 0
    },
    {
      "type": "VEC3",
      "componentType": 5120,
      "count": 227106,
      "normalized": true,
      "byteOffset": 0,
      "bufferView": 7
    },
    {
      "type": "SCALAR",
      "componentType": 5125,
      "count": 210840,
      "normalized": false,
      "byteOffset": 24535620,
      "bufferView": 0
    },
    {
      "type": "VEC3",
      "componentType": 5120,
      "count": 140560,
      "normalized": true,
      "byteOffset": 0,
      "bufferView": 8
    },
    {
      "type": "SCALAR",
      "componentType": 5125,
      "count": 210396,
      "normalized": false,
      "byteOffset": 25378980,
      "bufferView": 0
    },
    {
      "type": "VEC3",
      "componentType": 5120,
      "count": 140264,
      "normalized": true,
      "byteOffset": 0,
      "bufferView": 9
    },
    {
      "type": "SCALAR",
      "componentType": 5125,
      "count": 557550,
      "normalized": false,
      "byteOffset": 26220564,
      "bufferView": 0
    },
    {
      "type": "VEC3",
      "componentType": 5120,
      "count": 371626,
      "normalized": true,
      "byteOffset": 0,
      "bufferView": 10
    },
    {
      "type": "SCALAR",
      "componentType": 5123,
      "count": 92904,
      "normalized": false,
      "byteOffset": 0,
      "bufferView": 11
    },
    {
      "type": "VEC3",
      "componentType": 5120,
      "count": 61904,
      "normalized": true,
      "byteOffset": 0,
      "bufferView": 12
    },
    {
      "type": "SCALAR",
      "componentType": 5125,
      "count": 557232,
      "normalized": false,
      "byteOffset": 28450764,
      "bufferView": 0
    },
    {
      "type": "VEC3",
      "componentType": 5120,
      "count": 371424,
      "normalized": true,
      "byteOffset": 0,
      "bufferView": 13
    },
    {
      "type": "SCALAR",
      "componentType": 5123,
      "count": 6,
      "normalized": false,
      "byteOffset": 185808,
      "bufferView": 11
    },
    {
      "type": "VEC3",
      "componentType": 5120,
      "count": 4,
      "normalized": true,
      "byteOffset": 0,
      "bufferView": 14
    },
    {
      "type": "VEC3",
      "componentType": 5122,
      "count": 70416,
      "max": [
        19770,
        140,
        32767
      ],
      "min": [
        -19770,
        -140,
        -32767
      ],
      "normalized": true,
      "byteOffset": 0,
      "bufferView": 15
    },
    {
      "type": "VEC2",
      "componentType": 5123,
      "count": 70416,
      "normalized": true,
      "byteOffset": 0,
      "bufferView": 16
    },
    {
      "type": "VEC3",
      "componentType": 5122,
      "count": 339775,
      "max": [
        16137,
        9469,
        32767
      ],
      "min": [
        -16137,
        -9469,
        -32767
      ],
      "normalized": true,
      "byteOffset": 0,
      "bufferView": 17
    },
    {
      "type": "VEC2",
      "componentType": 5123,
      "count": 339775,
      "normalized": true,
      "byteOffset": 0,
      "bufferView": 18
    },
    {
      "type": "VEC3",
      "componentType": 5122,
      "count": 1533860,
      "max": [
        9561,
        1036,
        32767
      ],
      "min": [
        -9561,
        -1036,
        -32767
      ],
      "normalized": true,
      "byteOffset": 0,
      "bufferView": 19
    },
    {
      "type": "VEC2",
      "componentType": 5123,
      "count": 1533860,
      "normalized": true,
      "byteOffset": 0,
      "bufferView": 20
    },
    {
      "type": "VEC3",
      "componentType": 5122,
      "count": 942330,
      "max": [
        17262,
        12725,
        32767
      ],
      "min": [
        -17262,
        -12725,
        -32767
      ],
      "normalized": true,
      "byteOffset": 0,
      "bufferView": 21
    },
    {
      "type": "VEC2",
      "componentType": 5123,
      "count": 942330,
      "normalized": true,
      "byteOffset": 0,
      "bufferView": 22
    },
    {
      "type": "VEC3",
      "componentType": 5122,
      "count": 356851,
      "max": [
        20706,
        21610,
        32767
      ],
      "min": [
        -20706,
        -21610,
        -32767
      ],
      "normalized": true,
      "byteOffset": 0,
      "bufferView": 23
    },
    {
      "type": "VEC2",
      "componentType": 5123,
      "count": 356851,
      "normalized": true,
      "byteOffset": 0,
      "bufferView": 24
    },
    {
      "type": "VEC3",
      "componentType": 5122,
      "count": 357786,
      "max": [
        19782,
        19726,
        32767
      ],
      "min": [
        -19782,
        -19726,
        -32767
      ],
      "normalized": true,
      "byteOffset": 0,
      "bufferView": 25
    },
    {
      "type": "VEC2",
      "componentType": 5123,
      "count": 357786,
      "normalized": true,
      "byteOffset": 0,
      "bufferView": 26
    },
    {
      "type": "VEC3",
      "componentType": 5122,
      "count": 227106,
      "max": [
        22186,
        22122,
        32767
      ],
      "min": [
        -22186,
        -22122,
        -32767
      ],
      "normalized": true,
      "byteOffset": 0,
      "bufferView": 27
    },
    {
      "type": "VEC2",
      "componentType": 5123,
      "count": 227106,
      "normalized": true,
      "byteOffset": 0,
      "bufferView": 28
    },
    {
      "type": "VEC3",
      "componentType": 5122,
      "count": 140560,
      "max": [
        1116,
        376,
        32767
      ],
      "min": [
        -1116,
        -376,
        -32767
      ],
      "normalized": true,
      "byteOffset": 0,
      "bufferView": 29
    },
    {
      "type": "VEC2",
      "componentType": 5123,
      "count": 140560,
      "normalized": true,
      "byteOffset": 0,
      "bufferView": 30
    },
    {
      "type": "VEC3",
      "componentType": 5122,
      "count": 140264,
      "max": [
        4084,
        328,
        32767
      ],
      "min": [
        -4084,
        -328,
        -32767
      ],
      "normalized": true,
      "byteOffset": 0,
      "bufferView": 31
    },
    {
      "type": "VEC2",
      "componentType": 5123,
      "count": 140264,
      "normalized": true,
      "byteOffset": 0,
      "bufferView": 32
    },
    {
      "type": "VEC3",
      "componentType": 5122,
      "count": 371626,
      "max": [
        25731,
        28555,
        32767
      ],
      "min": [
        -25731,
        -28555,
        -32767
      ],
      "normalized": true,
      "byteOffset": 0,
      "bufferView": 33
    },
    {
      "type": "VEC2",
      "componentType": 5123,
      "count": 371626,
      "normalized": true,
      "byteOffset": 0,
      "bufferView": 34
    },
    {
      "type": "VEC3",
      "componentType": 5122,
      "count": 61904,
      "max": [
        4932,
        32767,
        28467
      ],
      "min": [
        -4932,
        -32767,
        -28467
      ],
      "normalized": true,
      "byteOffset": 0,
      "bufferView": 35
    },
    {
      "type": "VEC2",
      "componentType": 5123,
      "count": 61904,
      "normalized": true,
      "byteOffset": 0,
      "bufferView": 36
    },
    {
      "type": "VEC3",
      "componentType": 5122,
      "count": 371424,
      "max": [
        4960,
        32767,
        28431
      ],
      "min": [
        -4960,
        -32767,
        -28431
      ],
      "normalized": true,
      "byteOffset": 0,
      "bufferView": 37
    },
    {
      "type": "VEC2",
      "componentType": 5123,
      "count": 371424,
      "normalized": true,
      "byteOffset": 0,
      "bufferView": 38
    },
    {
      "type": "VEC3",
      "componentType": 5122,
      "count": 4,
      "max": [
        32767,
        0,
        32767
      ],
      "min": [
        -32767,
        0,
        -32767
      ],
      "normalized": true,
      "byteOffset": 0,
      "bufferView": 39
    },
    {
      "type": "VEC2",
      "componentType": 5123,
      "count": 4,
      "normalized": true,
      "byteOffset": 0,
      "bufferView": 40
    }
  ],
  "bufferViews": [
    {
      "buffer": 1,
      "byteOffset": 0,
      "byteLength": 30679692,
      "target": 34963,
      "extensions": {
        "EXT_meshopt_compression": {
          "buffer": 0,
          "byteOffset": 0,
          "byteLength": 2557903,
          "mode": "TRIANGLES",
          "byteStride": 4,
          "count": 7669923
        }
      }
    },
    {
      "buffer": 1,
      "byteOffset": 30679692,
      "byteLength": 281664,
      "target": 34962,
      "byteStride": 4,
      "extensions": {
        "EXT_meshopt_compression": {
          "buffer": 0,
          "byteOffset": 2557904,
          "byteLength": 6069,
          "mode": "ATTRIBUTES",
          "filter": "OCTAHEDRAL",
          "byteStride": 4,
          "count": 70416
        }
      }
    },
    {
      "buffer": 1,
      "byteOffset": 30961356,
      "byteLength": 1359100,
      "target": 34962,
      "byteStride": 4,
      "extensions": {
        "EXT_meshopt_compression": {
          "buffer": 0,
          "byteOffset": 2563976,
          "byteLength": 174597,
          "mode": "ATTRIBUTES",
          "filter": "OCTAHEDRAL",
          "byteStride": 4,
          "count": 339775
        }
      }
    },
    {
      "buffer": 1,
      "byteOffset": 32320456,
      "byteLength": 6135440,
      "target": 34962,
      "byteStride": 4,
      "extensions": {
        "EXT_meshopt_compression": {
          "buffer": 0,
          "byteOffset": 2738576,
          "byteLength": 1264905,
          "mode": "ATTRIBUTES",
          "filter": "OCTAHEDRAL",
          "byteStride": 4,
          "count": 1533860
        }
      }
    },
    {
      "buffer": 1,
      "byteOffset": 38455896,
      "byteLength": 3769320,
      "target": 34962,
      "byteStride": 4,
      "extensions": {
        "EXT_meshopt_compression": {
          "buffer": 0,
          "byteOffset": 4003484,
          "byteLength": 656724,
          "mode": "ATTRIBUTES",
          "filter": "OCTAHEDRAL",
          "byteStride": 4,
          "count": 942330
        }
      }
    },
    {
      "buffer": 1,
      "byteOffset": 42225216,
      "byteLength": 1427404,
      "target": 34962,
      "byteStride": 4,
      "extensions": {
        "EXT_meshopt_compression": {
          "buffer": 0,
          "byteOffset": 4660208,
          "byteLength": 198627,
          "mode": "ATTRIBUTES",
          "filter": "OCTAHEDRAL",
          "byteStride": 4,
          "count": 356851
        }
      }
    },
    {
      "buffer": 1,
      "byteOffset": 43652620,
      "byteLength": 1431144,
      "target": 34962,
      "byteStride": 4,
      "extensions": {
        "EXT_meshopt_compression": {
          "buffer": 0,
          "byteOffset": 4858836,
          "byteLength": 149099,
          "mode": "ATTRIBUTES",
          "filter": "OCTAHEDRAL",
          "byteStride": 4,
          "count": 357786
        }
      }
    },
    {
      "buffer": 1,
      "byteOffset": 45083764,
      "byteLength": 908424,
      "target": 34962,
      "byteStride": 4,
      "extensions": {
        "EXT_meshopt_compression": {
          "buffer": 0,
          "byteOffset": 5007936,
          "byteLength": 114232,
          "mode": "ATTRIBUTES",
          "filter": "OCTAHEDRAL",
          "byteStride": 4,
          "count": 227106
        }
      }
    },
    {
      "buffer": 1,
      "byteOffset": 45992188,
      "byteLength": 562240,
      "target": 34962,
      "byteStride": 4,
      "extensions": {
        "EXT_meshopt_compression": {
          "buffer": 0,
          "byteOffset": 5122168,
          "byteLength": 109999,
          "mode": "ATTRIBUTES",
          "filter": "OCTAHEDRAL",
          "byteStride": 4,
          "count": 140560
        }
      }
    },
    {
      "buffer": 1,
      "byteOffset": 46554428,
      "byteLength": 561056,
      "target": 34962,
      "byteStride": 4,
      "extensions": {
        "EXT_meshopt_compression": {
          "buffer": 0,
          "byteOffset": 5232168,
          "byteLength": 99084,
          "mode": "ATTRIBUTES",
          "filter": "OCTAHEDRAL",
          "byteStride": 4,
          "count": 140264
        }
      }
    },
    {
      "buffer": 1,
      "byteOffset": 47115484,
      "byteLength": 1486504,
      "target": 34962,
      "byteStride": 4,
      "extensions": {
        "EXT_meshopt_compression": {
          "buffer": 0,
          "byteOffset": 5331252,
          "byteLength": 144908,
          "mode": "ATTRIBUTES",
          "filter": "OCTAHEDRAL",
          "byteStride": 4,
          "count": 371626
        }
      }
    },
    {
      "buffer": 1,
      "byteOffset": 48601988,
      "byteLength": 185820,
      "target": 34963,
      "extensions": {
        "EXT_meshopt_compression": {
          "buffer": 0,
          "byteOffset": 5476160,
          "byteLength": 30988,
          "mode": "TRIANGLES",
          "byteStride": 2,
          "count": 92910
        }
      }
    },
    {
      "buffer": 1,
      "byteOffset": 48787808,
      "byteLength": 247616,
      "target": 34962,
      "byteStride": 4,
      "extensions": {
        "EXT_meshopt_compression": {
          "buffer": 0,
          "byteOffset": 5507148,
          "byteLength": 61187,
          "mode": "ATTRIBUTES",
          "filter": "OCTAHEDRAL",
          "byteStride": 4,
          "count": 61904
        }
      }
    },
    {
      "buffer": 1,
      "byteOffset": 49035424,
      "byteLength": 1485696,
      "target": 34962,
      "byteStride": 4,
      "extensions": {
        "EXT_meshopt_compression": {
          "buffer": 0,
          "byteOffset": 5568336,
          "byteLength": 374358,
          "mode": "ATTRIBUTES",
          "filter": "OCTAHEDRAL",
          "byteStride": 4,
          "count": 371424
        }
      }
    },
    {
      "buffer": 1,
      "byteOffset": 50521120,
      "byteLength": 16,
      "target": 34962,
      "byteStride": 4,
      "extensions": {
        "EXT_meshopt_compression": {
          "buffer": 0,
          "byteOffset": 5942696,
          "byteLength": 37,
          "mode": "ATTRIBUTES",
          "filter": "OCTAHEDRAL",
          "byteStride": 4,
          "count": 4
        }
      }
    },
    {
      "buffer": 1,
      "byteOffset": 50521136,
      "byteLength": 563328,
      "target": 34962,
      "byteStride": 8,
      "extensions": {
        "EXT_meshopt_compression": {
          "buffer": 0,
          "byteOffset": 5942736,
          "byteLength": 166433,
          "mode": "ATTRIBUTES",
          "byteStride": 8,
          "count": 70416
        }
      }
    },
    {
      "buffer": 1,
      "byteOffset": 51084464,
      "byteLength": 281664,
      "target": 34962,
      "byteStride": 4,
      "extensions": {
        "EXT_meshopt_compression": {
          "buffer": 0,
          "byteOffset": 6109172,
          "byteLength": 187842,
          "mode": "ATTRIBUTES",
          "byteStride": 4,
          "count": 70416
        }
      }
    },
    {
      "buffer": 1,
      "byteOffset": 51366128,
      "byteLength": 2718200,
      "target": 34962,
      "byteStride": 8,
      "extensions": {
        "EXT_meshopt_compression": {
          "buffer": 0,
          "byteOffset": 6297016,
          "byteLength": 1165283,
          "mode": "ATTRIBUTES",
          "byteStride": 8,
          "count": 339775
        }
      }
    },
    {
      "buffer": 1,
      "byteOffset": 54084328,
      "byteLength": 1359100,
      "target": 34962,
      "byteStride": 4,
      "extensions": {
        "EXT_meshopt_compression": {
          "buffer": 0,
          "byteOffset": 7462300,
          "byteLength": 771423,
          "mode": "ATTRIBUTES",
          "byteStride": 4,
          "count": 339775
        }
      }
    },
    {
      "buffer": 1,
      "byteOffset": 55443428,
      "byteLength": 12270880,
      "target": 34962,
      "byteStride": 8,
      "extensions": {
        "EXT_meshopt_compression": {
          "buffer": 0,
          "byteOffset": 8233724,
          "byteLength": 5786286,
          "mode": "ATTRIBUTES",
          "byteStride": 8,
          "count": 1533860
        }
      }
    },
    {
      "buffer": 1,
      "byteOffset": 67714308,
      "byteLength": 6135440,
      "target": 34962,
      "byteStride": 4,
      "extensions": {
        "EXT_meshopt_compression": {
          "buffer": 0,
          "byteOffset": 14020012,
          "byteLength": 2988763,
          "mode": "ATTRIBUTES",
          "byteStride": 4,
          "count": 1533860
        }
      }
    },
    {
      "buffer": 1,
      "byteOffset": 73849748,
      "byteLength": 7538640,
      "target": 34962,
      "byteStride": 8,
      "extensions": {
        "EXT_meshopt_compression": {
          "buffer": 0,
          "byteOffset": 17008776,
          "byteLength": 3822034,
          "mode": "ATTRIBUTES",
          "byteStride": 8,
          "count": 942330
        }
      }
    },
    {
      "buffer": 1,
      "byteOffset": 81388388,
      "byteLength": 3769320,
      "target": 34962,
      "byteStride": 4,
      "extensions": {
        "EXT_meshopt_compression": {
          "buffer": 0,
          "byteOffset": 20830812,
          "byteLength": 2212361,
          "mode": "ATTRIBUTES",
          "byteStride": 4,
          "count": 942330
        }
      }
    },
    {
      "buffer": 1,
      "byteOffset": 85157708,
      "byteLength": 2854808,
      "target": 34962,
      "byteStride": 8,
      "extensions": {
        "EXT_meshopt_compression": {
          "buffer": 0,
          "byteOffset": 23043176,
          "byteLength": 1328723,
          "mode": "ATTRIBUTES",
          "byteStride": 8,
          "count": 356851
        }
      }
    },
    {
      "buffer": 1,
      "byteOffset": 88012516,
      "byteLength": 1427404,
      "target": 34962,
      "byteStride": 4,
      "extensions": {
        "EXT_meshopt_compression": {
          "buffer": 0,
          "byteOffset": 24371900,
          "byteLength": 813447,
          "mode": "ATTRIBUTES",
          "byteStride": 4,
          "count": 356851
        }
      }
    },
    {
      "buffer": 1,
      "byteOffset": 89439920,
      "byteLength": 2862288,
      "target": 34962,
      "byteStride": 8,
      "extensions": {
        "EXT_meshopt_compression": {
          "buffer": 0,
          "byteOffset": 25185348,
          "byteLength": 1260203,
          "mode": "ATTRIBUTES",
          "byteStride": 8,
          "count": 357786
        }
      }
    },
    {
      "buffer": 1,
      "byteOffset": 92302208,
      "byteLength": 1431144,
      "target": 34962,
      "byteStride": 4,
      "extensions": {
        "EXT_meshopt_compression": {
          "buffer": 0,
          "byteOffset": 26445552,
          "byteLength": 837213,
          "mode": "ATTRIBUTES",
          "byteStride": 4,
          "count": 357786
        }
      }
    },
    {
      "buffer": 1,
      "byteOffset": 93733352,
      "byteLength": 1816848,
      "target": 34962,
      "byteStride": 8,
      "extensions": {
        "EXT_meshopt_compression": {
          "buffer": 0,
          "byteOffset": 27282768,
          "byteLength": 846803,
          "mode": "ATTRIBUTES",
          "byteStride": 8,
          "count": 227106
        }
      }
    },
    {
      "buffer": 1,
      "byteOffset": 95550200,
      "byteLength": 908424,
      "target": 34962,
      "byteStride": 4,
      "extensions": {
        "EXT_meshopt_compression": {
          "buffer": 0,
          "byteOffset": 28129572,
          "byteLength": 532279,
          "mode": "ATTRIBUTES",
          "byteStride": 4,
          "count": 227106
        }
      }
    },
    {
      "buffer": 1,
      "byteOffset": 96458624,
      "byteLength": 1124480,
      "target": 34962,
      "byteStride": 8,
      "extensions": {
        "EXT_meshopt_compression": {
          "buffer": 0,
          "byteOffset": 28661852,
          "byteLength": 513805,
          "mode": "ATTRIBUTES",
          "byteStride": 8,
          "count": 140560
        }
      }
    },
    {
      "buffer": 1,
      "byteOffset": 97583104,
      "byteLength": 562240,
      "target": 34962,
      "byteStride": 4,
      "extensions": {
        "EXT_meshopt_compression": {
          "buffer": 0,
          "byteOffset": 29175660,
          "byteLength": 290019,
          "mode": "ATTRIBUTES",
          "byteStride": 4,
          "count": 140560
        }
      }
    },
    {
      "buffer": 1,
      "byteOffset": 98145344,
      "byteLength": 1122112,
      "target": 34962,
      "byteStride": 8,
      "extensions": {
        "EXT_meshopt_compression": {
          "buffer": 0,
          "byteOffset": 29465680,
          "byteLength": 541126,
          "mode": "ATTRIBUTES",
          "byteStride": 8,
          "count": 140264
        }
      }
    },
    {
      "buffer": 1,
      "byteOffset": 99267456,
      "byteLength": 561056,
      "target": 34962,
      "byteStride": 4,
      "extensions": {
        "EXT_meshopt_compression": {
          "buffer": 0,
          "byteOffset": 30006808,
          "byteLength": 289524,
          "mode": "ATTRIBUTES",
          "byteStride": 4,
          "count": 140264
        }
      }
    },
    {
      "buffer": 1,
      "byteOffset": 99828512,
      "byteLength": 2973008,
      "target": 34962,
      "byteStride": 8,
      "extensions": {
        "EXT_meshopt_compression": {
          "buffer": 0,
          "byteOffset": 30296332,
          "byteLength": 1316758,
          "mode": "ATTRIBUTES",
          "byteStride": 8,
          "count": 371626
        }
      }
    },
    {
      "buffer": 1,
      "byteOffset": 102801520,
      "byteLength": 1486504,
      "target": 34962,
      "byteStride": 4,
      "extensions": {
        "EXT_meshopt_compression": {
          "buffer": 0,
          "byteOffset": 31613092,
          "byteLength": 858017,
          "mode": "ATTRIBUTES",
          "byteStride": 4,
          "count": 371626
        }
      }
    },
    {
      "buffer": 1,
      "byteOffset": 104288024,
      "byteLength": 495232,
      "target": 34962,
      "byteStride": 8,
      "extensions": {
        "EXT_meshopt_compression": {
          "buffer": 0,
          "byteOffset": 32471112,
          "byteLength": 311633,
          "mode": "ATTRIBUTES",
          "byteStride": 8,
          "count": 61904
        }
      }
    },
    {
      "buffer": 1,
      "byteOffset": 104783256,
      "byteLength": 247616,
      "target": 34962,
      "byteStride": 4,
      "extensions": {
        "EXT_meshopt_compression": {
          "buffer": 0,
          "byteOffset": 32782748,
          "byteLength": 208479,
          "mode": "ATTRIBUTES",
          "byteStride": 4,
          "count": 61904
        }
      }
    },
    {
      "buffer": 1,
      "byteOffset": 105030872,
      "byteLength": 2971392,
      "target": 34962,
      "byteStride": 8,
      "extensions": {
        "EXT_meshopt_compression": {
          "buffer": 0,
          "byteOffset": 32991228,
          "byteLength": 1822148,
          "mode": "ATTRIBUTES",
          "byteStride": 8,
          "count": 371424
        }
      }
    },
    {
      "buffer": 1,
      "byteOffset": 108002264,
      "byteLength": 1485696,
      "target": 34962,
      "byteStride": 4,
      "extensions": {
        "EXT_meshopt_compression": {
          "buffer": 0,
          "byteOffset": 34813376,
          "byteLength": 1112797,
          "mode": "ATTRIBUTES",
          "byteStride": 4,
          "count": 371424
        }
      }
    },
    {
      "buffer": 1,
      "byteOffset": 109487960,
      "byteLength": 32,
      "target": 34962,
      "byteStride": 8,
      "extensions": {
        "EXT_meshopt_compression": {
          "buffer": 0,
          "byteOffset": 35926176,
          "byteLength": 60,
          "mode": "ATTRIBUTES",
          "byteStride": 8,
          "count": 4
        }
      }
    },
    {
      "buffer": 1,
      "byteOffset": 109487992,
      "byteLength": 16,
      "target": 34962,
      "byteStride": 4,
      "extensions": {
        "EXT_meshopt_compression": {
          "buffer": 0,
          "byteOffset": 35926236,
          "byteLength": 53,
          "mode": "ATTRIBUTES",
          "byteStride": 4,
          "count": 4
        }
      }
    }
  ],
  "samplers": [
    {
      "magFilter": 9729,
      "minFilter": 9987,
      "wrapS": 10497,
      "wrapT": 10497
    }
  ],
  "textures": [
    {
      "source": 1,
      "sampler": 0
    },
    {
      "source": 0,
      "sampler": 0
    },
    {
      "source": 2,
      "sampler": 0
    },
    {
      "source": 3,
      "sampler": 0
    },
    {
      "source": 4,
      "sampler": 0
    }
  ],
  "images": [
    {
      "name": "TexturesCom_BuildingsIndustrial0136_1_M",
      "mimeType": "image/jpeg",
      "uri": "TexturesCom_BuildingsIndustrial0136_1_M.jpg"
    },
    {
      "name": "xian-vanke-ruyuan-sales-center-by-one-cu-26",
      "mimeType": "image/jpeg",
      "uri": "xian-vanke-ruyuan-sales-center-by-one-cu-26.jpg"
    },
    {
      "name": "TexturesCom_BuildingsIndustrial0136_1_M",
      "mimeType": "image/png",
      "uri": "TexturesCom_BuildingsIndustrial0136_1_M.png"
    },
    {
      "name": "tumblr_n9ji2jhLKm1qe0lqqo1_1280",
      "mimeType": "image/png",
      "uri": "tumblr_n9ji2jhLKm1qe0lqqo1_1280.png"
    },
    {
      "name": "tumblr_n9ji2jhLKm1qe0lqqo1_1280",
      "mimeType": "image/png",
      "uri": "tumblr_n9ji2jhLKm1qe0lqqo1_1280-1.png"
    },
    {
      "name": "Male_02_Spec",
      "mimeType": "image/jpeg",
      "uri": "Male_02_Spec.jpg"
    }
  ],
  "buffers": [
    {
      "uri": "cave-temple.bin",
      "byteLength": 35926292
    },
    {
      "byteLength": 109488008,
      "extensions": {
        "EXT_meshopt_compression": {
          "fallback": true
        }
      }
    }
  ],
  "materials": [
    {
      "name": "Material.010",
      "doubleSided": true,
      "pbrMetallicRoughness": {
        "metallicFactor": 0.5681818127632141,
        "baseColorTexture": {
          "index": 0,
          "extensions": {
            "KHR_texture_transform": {
              "offset": [
                0,
                -0.060000061988830566
              ],
              "scale": [
                1.0600000619888306,
                1.0600000619888306
              ]
            }
          }
        },
        "metallicRoughnessTexture": {
          "index": 2,
          "extensions": {
            "KHR_texture_transform": {
              "offset": [
                -1.999999999999998,
                1.00000008742278
              ],
              "rotation": 1.5707963705062866,
              "scale": [
                2,
                2
              ]
            }
          }
        }
      },
      "normalTexture": {
        "index": 1,
        "extensions": {
          "KHR_texture_transform": {
            "offset": [
              -1.999999999999998,
              1.00000008742278
            ],
            "rotation": 1.5707963705062866,
            "scale": [
              2,
              2
            ]
          }
        }
      },
      "extensions": {
        "KHR_materials_ior": {
          "ior": 1.4500000476837158
        },
        "KHR_materials_specular": {
          "specularColorFactor": [
            1.281818151473999,
            1.281818151473999,
            1.281818151473999
          ]
        }
      }
    },
    {
      "name": "Material.009",
      "doubleSided": true,
      "pbrMetallicRoughness": {
        "metallicFactor": 0,
        "baseColorTexture": {
          "index": 0,
          "extensions": {
            "KHR_texture_transform": {
              "offset": [
                0,
                0.9630860098055603
              ],
              "scale": [
                0.03706449284532166,
                0.03691399019443972
              ]
            }
          }
        },
        "metallicRoughnessTexture": {
          "index": 4,
          "extensions": {
            "KHR_texture_transform": {
              "offset": [
                0,
                0.7555012316155383
              ],
              "scale": [
                0.25125628020293134,
                0.24449876838446177
              ]
            }
          }
        }
      },
      "normalTexture": {
        "index": 3,
        "extensions": {
          "KHR_texture_transform": {
            "offset": [
              0,
              0.7555012316155383
            ],
            "scale": [
              0.25125628020293134,
              0.24449876838446177
            ]
          }
        }
      }
    }
  ],
  "meshes": [
    {
      "name": "Cube.011",
      "primitives": [
        {
          "attributes": {
            "NORMAL": 1,
            "POSITION": 26,
            "TEXCOORD_0": 27
          },
          "mode": 4,
          "material": 0,
          "indices": 0
        }
      ]
    },
    {
      "name": "Cube.001",
      "primitives": [
        {
          "attributes": {
            "NORMAL": 3,
            "POSITION": 28,
            "TEXCOORD_0": 29
          },
          "mode": 4,
          "material": 0,
          "indices": 2
        }
      ]
    },
    {
      "name": "Cube.002",
      "primitives": [
        {
          "attributes": {
            "NORMAL": 5,
            "POSITION": 30,
            "TEXCOORD_0": 31
          },
          "mode": 4,
          "material": 0,
          "indices": 4
        }
      ]
    },
    {
      "name": "Cube.003",
      "primitives": [
        {
          "attributes": {
            "NORMAL": 7,
            "POSITION": 32,
            "TEXCOORD_0": 33
          },
          "mode": 4,
          "material": 0,
          "indices": 6
        }
      ]
    },
    {
      "name": "Cube.004",
      "primitives": [
        {
          "attributes": {
            "NORMAL": 9,
            "POSITION": 34,
            "TEXCOORD_0": 35
          },
          "mode": 4,
          "material": 0,
          "indices": 8
        }
      ]
    },
    {
      "name": "Cube.005",
      "primitives": [
        {
          "attributes": {
            "NORMAL": 11,
            "POSITION": 36,
            "TEXCOORD_0": 37
          },
          "mode": 4,
          "material": 0,
          "indices": 10
        }
      ]
    },
    {
      "name": "Cube.006",
      "primitives": [
        {
          "attributes": {
            "NORMAL": 13,
            "POSITION": 38,
            "TEXCOORD_0": 39
          },
          "mode": 4,
          "material": 0,
          "indices": 12
        }
      ]
    },
    {
      "name": "Cube.007",
      "primitives": [
        {
          "attributes": {
            "NORMAL": 15,
            "POSITION": 40,
            "TEXCOORD_0": 41
          },
          "mode": 4,
          "material": 0,
          "indices": 14
        }
      ]
    },
    {
      "name": "Cube.009",
      "primitives": [
        {
          "attributes": {
            "NORMAL": 17,
            "POSITION": 42,
            "TEXCOORD_0": 43
          },
          "mode": 4,
          "material": 0,
          "indices": 16
        }
      ]
    },
    {
      "name": "Cube.010",
      "primitives": [
        {
          "attributes": {
            "NORMAL": 19,
            "POSITION": 44,
            "TEXCOORD_0": 45
          },
          "mode": 4,
          "material": 0,
          "indices": 18
        }
      ]
    },
    {
      "name": "Cube.013",
      "primitives": [
        {
          "attributes": {
            "NORMAL": 21,
            "POSITION": 46,
            "TEXCOORD_0": 47
          },
          "mode": 4,
          "material": 1,
          "indices": 20
        }
      ]
    },
    {
      "name": "Cube.012",
      "primitives": [
        {
          "attributes": {
            "NORMAL": 21,
            "POSITION": 46,
            "TEXCOORD_0": 47
          },
          "mode": 4,
          "material": 0,
          "indices": 20
        }
      ]
    },
    {
      "name": "Cube.016",
      "primitives": [
        {
          "attributes": {
            "NORMAL": 23,
            "POSITION": 48,
            "TEXCOORD_0": 49
          },
          "mode": 4,
          "material": 0,
          "indices": 22
        }
      ]
    },
    {
      "name": "Cube.015",
      "primitives": [
        {
          "attributes": {
            "NORMAL": 23,
            "POSITION": 48,
            "TEXCOORD_0": 49
          },
          "mode": 4,
          "material": 0,
          "indices": 22
        }
      ]
    },
    {
      "name": "Cube.017",
      "primitives": [
        {
          "attributes": {
            "NORMAL": 23,
            "POSITION": 48,
            "TEXCOORD_0": 49
          },
          "mode": 4,
          "material": 0,
          "indices": 22
        }
      ]
    },
    {
      "name": "Plane",
      "primitives": [
        {
          "attributes": {
            "NORMAL": 25,
            "POSITION": 50,
            "TEXCOORD_0": 51
          },
          "mode": 4,
          "material": 0,
          "indices": 24
        }
      ]
    }
  ],
  "nodes": [
    {
      "name": "Cube",
      "translation": [
        0.04815244674682617,
        0,
        0
      ],
      "scale": [
        14.6056547164917,
        14.6056547164917,
        14.6056547164917
      ],
      "mesh": 0
    },
    {
      "name": "Cube.001",
      "translation": [
        -0.000003414178201601348,
        0.9351421594619751,
        3.9012575149536133
      ],
      "rotation": [
        0,
        0.9999999999999867,
        0,
        -1.6292068494294008e-7
      ],
      "scale": [
        19.235922813416547,
        19.235922813415527,
        19.235922813416547
      ],
      "mesh": 1
    },
    {
      "name": "Cube.002",
      "translation": [
        0.10439157485961914,
        2.00812104344368,
        9.720165252685547
      ],
      "scale": [
        43.87612533569336,
        43.87612533569336,
        43.87612533569336
      ],
      "mesh": 2
    },
    {
      "name": "Cube.003",
      "translation": [
        0,
        4.381605863571167,
        14.023207664489746
      ],
      "scale": [
        40.22517490386963,
        40.22517490386963,
        40.22517490386963
      ],
      "mesh": 3
    },
    {
      "name": "Cube.004",
      "translation": [
        0,
        1.322883129119873,
        -1.1275100708007812
      ],
      "scale": [
        16.170089721679688,
        16.170089721679688,
        16.170089721679688
      ],
      "mesh": 4
    },
    {
      "name": "Cube.005",
      "translation": [
        -5.685299983462694e-7,
        5.874587137851481,
        -2.629441591228499
      ],
      "rotation": [
        0.02519255869964627,
        0.025192640725226645,
        -0.7066577077872723,
        0.706658014788125
      ],
      "scale": [
        17.712601972173033,
        17.712601972173026,
        17.712600711217114
      ],
      "mesh": 5
    },
    {
      "name": "Cube.006",
      "translation": [
        2.898938591601208e-7,
        12.864382126643697,
        -0.7159538132781623
      ],
      "rotation": [
        -0.02519264438606159,
        0.025192558768841633,
        0.7066580058107282,
        0.7066577166316956
      ],
      "scale": [
        15.79424398910941,
        15.794243989109418,
        15.79424286175598
      ],
      "mesh": 6
    },
    {
      "name": "Cube.007",
      "translation": [
        -0.0000020265579223632812,
        9.411600083112717,
        20.951892852783203
      ],
      "scale": [
        33.744937896728516,
        33.744937896728516,
        33.744937896728516
      ],
      "mesh": 7
    },
    {
      "name": "Cube.009",
      "translation": [
        -0.000008821487426757812,
        1.3528491711052375,
        20.180000241503187
      ],
      "rotation": [
        0.0010727662945178452,
        0,
        0,
        0.9999994245860732
      ],
      "scale": [
        34.16450023651123,
        34.164500236601725,
        34.164500236601725
      ],
      "mesh": 8
    },
    {
      "name": "Cube.010",
      "translation": [
        -0.0000017376037078314449,
        22.736349307386273,
        7.1374152161568345
      ],
      "rotation": [
        -0.025192644386061586,
        0.02519255876884164,
        0.7066580058107285,
        0.7066577166316955
      ],
      "scale": [
        23.27515816350588,
        23.2751581635059,
        23.275156502183606
      ],
      "mesh": 9
    },
    {
      "name": "Cube.011",
      "translation": [
        0.25522637367248535,
        26.56814767420292,
        0
      ],
      "scale": [
        26.921525940299034,
        26.921525940299034,
        26.921525940299034
      ],
      "mesh": 10
    },
    {
      "name": "Cube.012",
      "translation": [
        0.25522637367248535,
        26.56814767420292,
        0
      ],
      "scale": [
        26.921525940299034,
        26.921525940299034,
        26.921525940299034
      ],
      "mesh": 11
    },
    {
      "name": "Cube.013",
      "translation": [
        -8.312068574793066e-8,
        14.140062019391593,
        -13.22153982675778
      ],
      "rotation": [
        0,
        0.7071068286895689,
        0,
        0.7071067336835231
      ],
      "scale": [
        58.84030885553503,
        58.84030094981895,
        58.84030885553503
      ],
      "mesh": 12
    },
    {
      "name": "Cube.015",
      "translation": [
        -3.807894153698443e-8,
        14.026016727089882,
        -12.8863051318442
      ],
      "rotation": [
        0,
        0.7071068286895689,
        0,
        0.7071067336835231
      ],
      "scale": [
        26.955704958002066,
        26.95570133626461,
        26.955704958002066
      ],
      "mesh": 13
    },
    {
      "name": "Cube.016",
      "translation": [
        -3.807894153698443e-8,
        27.319538965821266,
        -12.8863051318442
      ],
      "rotation": [
        0,
        0.7071068286895689,
        0,
        0.7071067336835231
      ],
      "scale": [
        26.955704958002066,
        26.95570133626461,
        26.955704958002066
      ],
      "mesh": 14
    },
    {
      "name": "Plane",
      "translation": [
        0,
        1.4130239486694336,
        0
      ],
      "scale": [
        53.09135437011719,
        53.09135437011719,
        53.09135437011719
      ],
      "mesh": 15
    }
  ],
  "scenes": [
    {
      "name": "Scene",
      "nodes": [
        0,
        1,
        2,
        3,
        4,
        5,
        6,
        7,
        8,
        9,
        10,
        11,
        12,
        13,
        14,
        15
      ]
    }
  ],
  "scene": 0,
  "extensionsUsed": [
    "EXT_meshopt_compression",
    "KHR_materials_emissive_strength",
    "KHR_materials_ior",
    "KHR_materials_specular",
    "KHR_mesh_quantization",
    "KHR_texture_transform"
  ],
  "extensionsRequired": [
    "EXT_meshopt_compression",
    "KHR_mesh_quantization",
    "KHR_texture_transform"
  ]
}