{"asset":{"generator":"glTF-Transform v4.5.0","version":"2.0"},"accessors":[{"type":"SCALAR","componentType":5125,"count":613638,"normalized":false,"byteOffset":0,"bufferView":0},{"type":"VEC2","componentType":5126,"count":338086,"normalized":false,"byteOffset":0,"bufferView":1},{"type":"VEC2","componentType":5126,"count":338086,"normalized":false,"byteOffset":0,"bufferView":2},{"type":"VEC4","componentType":5121,"count":338086,"normalized":true,"byteOffset":0,"bufferView":3},{"type":"VEC3","componentType":5120,"count":338086,"normalized":true,"byteOffset":0,"bufferView":4},{"type":"SCALAR","componentType":5123,"count":288,"normalized":false,"byteOffset":0,"bufferView":5},{"type":"VEC4","componentType":5121,"count":192,"normalized":true,"byteOffset":0,"bufferView":6},{"type":"VEC3","componentType":5120,"count":192,"normalized":true,"byteOffset":0,"bufferView":7},{"type":"SCALAR","componentType":5125,"count":545244,"normalized":false,"byteOffset":2454552,"bufferView":0},{"type":"VEC2","componentType":5126,"count":292872,"normalized":false,"byteOffset":0,"bufferView":8},{"type":"VEC2","componentType":5126,"count":292872,"normalized":false,"byteOffset":0,"bufferView":9},{"type":"VEC4","componentType":5121,"count":292872,"normalized":true,"byteOffset":0,"bufferView":10},{"type":"VEC3","componentType":5120,"count":292872,"normalized":true,"byteOffset":0,"bufferView":11},{"type":"VEC3","componentType":5120,"count":192,"normalized":true,"byteOffset":0,"bufferView":12},{"type":"SCALAR","componentType":5123,"count":1332,"normalized":false,"byteOffset":576,"bufferView":5},{"type":"VEC4","componentType":5121,"count":797,"normalized":true,"byteOffset":0,"bufferView":13},{"type":"VEC3","componentType":5120,"count":797,"normalized":true,"byteOffset":0,"bufferView":14},{"type":"SCALAR","componentType":5123,"count":468,"normalized":false,"byteOffset":3240,"bufferView":5},{"type":"VEC4","componentType":5121,"count":305,"normalized":true,"byteOffset":0,"bufferView":15},{"type":"VEC3","componentType":5120,"count":305,"normalized":true,"byteOffset":0,"bufferView":16},{"type":"SCALAR","componentType":5123,"count":67806,"normalized":false,"byteOffset":4176,"bufferView":5},{"type":"VEC4","componentType":5121,"count":44822,"normalized":true,"byteOffset":0,"bufferView":17},{"type":"VEC3","componentType":5120,"count":44822,"normalized":true,"byteOffset":0,"bufferView":18},{"type":"SCALAR","componentType":5125,"count":613638,"normalized":false,"byteOffset":4635528,"bufferView":0},{"type":"VEC3","componentType":5120,"count":338086,"normalized":true,"byteOffset":0,"bufferView":19},{"type":"VEC2","componentType":5126,"count":338086,"normalized":false,"byteOffset":0,"bufferView":20},{"type":"SCALAR","componentType":5125,"count":187776,"normalized":false,"byteOffset":7090080,"bufferView":0},{"type":"VEC3","componentType":5120,"count":70416,"normalized":true,"byteOffset":0,"bufferView":21},{"type":"SCALAR","componentType":5125,"count":541056,"normalized":false,"byteOffset":7841184,"bufferView":0},{"type":"VEC3","componentType":5120,"count":339775,"normalized":true,"byteOffset":0,"bufferView":22},{"type":"SCALAR","componentType":5125,"count":2301000,"normalized":false,"byteOffset":10005408,"bufferView":0},{"type":"VEC3","componentType":5120,"count":1533860,"normalized":true,"byteOffset":0,"bufferView":23},{"type":"SCALAR","componentType":5125,"count":1460628,"normalized":false,"byteOffset":19209408,"bufferView":0},{"type":"VEC3","componentType":5120,"count":942330,"normalized":true,"byteOffset":0,"bufferView":24},{"type":"SCALAR","componentType":5125,"count":609084,"normalized":false,"byteOffset":25051920,"bufferView":0},{"type":"VEC3","componentType":5120,"count":356851,"normalized":true,"byteOffset":0,"bufferView":25},{"type":"SCALAR","componentType":5125,"count":638898,"normalized":false,"byteOffset":27488256,"bufferView":0},{"type":"VEC3","componentType":5120,"count":357786,"normalized":true,"byteOffset":0,"bufferView":26},{"type":"SCALAR","componentType":5125,"count":395463,"normalized":false,"byteOffset":30043848,"bufferView":0},{"type":"VEC3","componentType":5120,"count":227106,"normalized":true,"byteOffset":0,"bufferView":27},{"type":"SCALAR","componentType":5125,"count":210840,"normalized":false,"byteOffset":31625700,"bufferView":0},{"type":"VEC3","componentType":5120,"count":140560,"normalized":true,"byteOffset":0,"bufferView":28},{"type":"SCALAR","componentType":5123,"count":36,"normalized":false,"byteOffset":139788,"bufferView":5},{"type":"VEC3","componentType":5120,"count":24,"normalized":true,"byteOffset":0,"bufferView":29},{"type":"SCALAR","componentType":5125,"count":210396,"normalized":false,"byteOffset":32469060,"bufferView":0},{"type":"VEC3","componentType":5120,"count":140264,"normalized":true,"byteOffset":0,"bufferView":30},{"type":"SCALAR","componentType":5125,"count":557550,"normalized":false,"byteOffset":33310644,"bufferView":0},{"type":"VEC3","componentType":5120,"count":371626,"normalized":true,"byteOffset":0,"bufferView":31},{"type":"SCALAR","componentType":5123,"count":92904,"normalized":false,"byteOffset":139860,"bufferView":5},{"type":"VEC3","componentType":5120,"count":61904,"normalized":true,"byteOffset":0,"bufferView":32},{"type":"SCALAR","componentType":5125,"count":557232,"normalized":false,"byteOffset":35540844,"bufferView":0},{"type":"VEC3","componentType":5120,"count":371424,"normalized":true,"byteOffset":0,"bufferView":33},{"type":"SCALAR","componentType":5123,"count":299994,"normalized":false,"byteOffset":325668,"bufferView":5},{"type":"VEC3","componentType":5120,"count":52483,"normalized":true,"byteOffset":0,"bufferView":34},{"type":"SCALAR","componentType":5123,"count":6,"normalized":false,"byteOffset":925656,"bufferView":5},{"type":"VEC3","componentType":5120,"count":4,"normalized":true,"byteOffset":0,"bufferView":35},{"type":"VEC3","componentType":5120,"count":4,"normalized":true,"byteOffset":0,"bufferView":36},{"type":"VEC3","componentType":5122,"count":338086,"max":[16614,32767,13145],"min":[-16614,-32767,-13145],"normalized":true,"byteOffset":0,"bufferView":37},{"type":"VEC3","componentType":5122,"count":192,"max":[-15329,-1776,620],"min":[-16586,-3460,-632],"normalized":true,"byteOffset":0,"bufferView":38},{"type":"VEC2","componentType":5123,"count":192,"normalized":true,"byteOffset":0,"bufferView":39},{"type":"VEC2","componentType":5123,"count":192,"normalized":true,"byteOffset":0,"bufferView":40},{"type":"VEC3","componentType":5122,"count":292872,"max":[17714,32767,8889],"min":[-17714,-32767,-8901],"normalized":true,"byteOffset":0,"bufferView":41},{"type":"VEC3","componentType":5122,"count":192,"max":[836,-13781,8901],"min":[-856,-16049,7212],"normalized":true,"byteOffset":0,"bufferView":42},{"type":"VEC3","componentType":5122,"count":797,"max":[25239,32767,25239],"min":[-25239,-32767,-25239],"normalized":true,"byteOffset":0,"bufferView":43},{"type":"VEC2","componentType":5123,"count":797,"normalized":true,"byteOffset":0,"bufferView":44},{"type":"VEC2","componentType":5123,"count":797,"normalized":true,"byteOffset":0,"bufferView":45},{"type":"VEC3","componentType":5122,"count":305,"max":[25239,32767,25239],"min":[-25239,-32767,-25239],"normalized":true,"byteOffset":0,"bufferView":46},{"type":"VEC2","componentType":5123,"count":305,"normalized":true,"byteOffset":0,"bufferView":47},{"type":"VEC2","componentType":5123,"count":305,"normalized":true,"byteOffset":0,"bufferView":48},{"type":"VEC3","componentType":5122,"count":44822,"max":[3636,32767,22754],"min":[-3636,-32767,-22754],"normalized":true,"byteOffset":0,"bufferView":49},{"type":"VEC2","componentType":5123,"count":44822,"normalized":true,"byteOffset":0,"bufferView":50},{"type":"VEC2","componentType":5123,"count":44822,"normalized":true,"byteOffset":0,"bufferView":51},{"type":"VEC3","componentType":5122,"count":338086,"max":[13709,32767,16013],"min":[-13709,-32767,-16013],"normalized":true,"byteOffset":0,"bufferView":52},{"type":"VEC3","componentType":5122,"count":192,"max":[-12145,-9317,756],"min":[-13673,-11373,-772],"normalized":true,"byteOffset":0,"bufferView":53},{"type":"VEC3","componentType":5122,"count":70416,"max":[19770,140,32767],"min":[-19770,-140,-32767],"normalized":true,"byteOffset":0,"bufferView":54},{"type":"VEC2","componentType":5123,"count":70416,"normalized":true,"byteOffset":0,"bufferView":55},{"type":"VEC3","componentType":5122,"count":339775,"max":[16137,9469,32767],"min":[-16137,-9469,-32767],"normalized":true,"byteOffset":0,"bufferView":56},{"type":"VEC2","componentType":5123,"count":339775,"normalized":true,"byteOffset":0,"bufferView":57},{"type":"VEC3","componentType":5122,"count":1533860,"max":[9561,1036,32767],"min":[-9561,-1036,-32767],"normalized":true,"byteOffset":0,"bufferView":58},{"type":"VEC2","componentType":5123,"count":1533860,"normalized":true,"byteOffset":0,"bufferView":59},{"type":"VEC3","componentType":5122,"count":942330,"max":[17262,12725,32767],"min":[-17262,-12725,-32767],"normalized":true,"byteOffset":0,"bufferView":60},{"type":"VEC2","componentType":5123,"count":942330,"normalized":true,"byteOffset":0,"bufferView":61},{"type":"VEC3","componentType":5122,"count":356851,"max":[20706,21610,32767],"min":[-20706,-21610,-32767],"normalized":true,"byteOffset":0,"bufferView":62},{"type":"VEC2","componentType":5123,"count":356851,"normalized":true,"byteOffset":0,"bufferView":63},{"type":"VEC3","componentType":5122,"count":357786,"max":[19782,19726,32767],"min":[-19782,-19726,-32767],"normalized":true,"byteOffset":0,"bufferView":64},{"type":"VEC2","componentType":5123,"count":357786,"normalized":true,"byteOffset":0,"bufferView":65},{"type":"VEC3","componentType":5122,"count":227106,"max":[22186,22122,32767],"min":[-22186,-22122,-32767],"normalized":true,"byteOffset":0,"bufferView":66},{"type":"VEC2","componentType":5123,"count":227106,"normalized":true,"byteOffset":0,"bufferView":67},{"type":"VEC3","componentType":5122,"count":140560,"max":[1116,376,32767],"min":[-1116,-376,-32767],"normalized":true,"byteOffset":0,"bufferView":68},{"type":"VEC2","componentType":5123,"count":140560,"normalized":true,"byteOffset":0,"bufferView":69},{"type":"VEC3","componentType":5122,"count":24,"max":[24114,32767,24114],"min":[-24114,-32767,-24114],"normalized":true,"byteOffset":0,"bufferView":70},{"type":"VEC2","componentType":5123,"count":24,"normalized":true,"byteOffset":0,"bufferView":71},{"type":"VEC3","componentType":5122,"count":140264,"max":[4084,328,32767],"min":[-4084,-328,-32767],"normalized":true,"byteOffset":0,"bufferView":72},{"type":"VEC2","componentType":5123,"count":140264,"normalized":true,"byteOffset":0,"bufferView":73},{"type":"VEC3","componentType":5122,"count":371626,"max":[25731,28555,32767],"min":[-25731,-28555,-32767],"normalized":true,"byteOffset":0,"bufferView":74},{"type":"VEC2","componentType":5123,"count":371626,"normalized":true,"byteOffset":0,"bufferView":75},{"type":"VEC3","componentType":5122,"count":61904,"max":[4932,32767,28467],"min":[-4932,-32767,-28467],"normalized":true,"byteOffset":0,"bufferView":76},{"type":"VEC2","componentType":5123,"count":61904,"normalized":true,"byteOffset":0,"bufferView":77},{"type":"VEC3","componentType":5122,"count":371424,"max":[4960,32767,28431],"min":[-4960,-32767,-28431],"normalized":true,"byteOffset":0,"bufferView":78},{"type":"VEC2","componentType":5123,"count":371424,"normalized":true,"byteOffset":0,"bufferView":79},{"type":"VEC3","componentType":5122,"count":24,"max":[17950,696,32767],"min":[-17950,-696,-32767],"normalized":true,"byteOffset":0,"bufferView":80},{"type":"VEC3","componentType":5122,"count":52483,"max":[12981,8385,32767],"min":[-12981,-8385,-32767],"normalized":true,"byteOffset":0,"bufferView":81},{"type":"VEC2","componentType":5123,"count":52483,"normalized":true,"byteOffset":0,"bufferView":82},{"type":"VEC3","componentType":5122,"count":4,"max":[32767,0,32767],"min":[-32767,0,-32767],"normalized":true,"byteOffset":0,"bufferView":83},{"type":"VEC2","componentType":5123,"count":4,"normalized":true,"byteOffset":0,"bufferView":84},{"type":"VEC3","componentType":5122,"count":4,"max":[32767,32767,0],"min":[-32767,-32767,0],"normalized":true,"byteOffset":0,"bufferView":85}],"bufferViews":[{"buffer":1,"byteOffset":0,"byteLength":37769772,"target":34963,"extensions":{"EXT_meshopt_compression":{"buffer":0,"byteOffset":0,"byteLength":3165604,"mode":"TRIANGLES","byteStride":4,"count":9442443}}},{"buffer":1,"byteOffset":37769772,"byteLength":2704688,"target":34962,"byteStride":8,"extensions":{"EXT_meshopt_compression":{"buffer":0,"byteOffset":3165604,"byteLength":172325,"mode":"ATTRIBUTES","byteStride":8,"count":338086}}},{"buffer":1,"byteOffset":40474460,"byteLength":2704688,"target":34962,"byteStride":8,"extensions":{"EXT_meshopt_compression":{"buffer":0,"byteOffset":3337932,"byteLength":1335157,"mode":"ATTRIBUTES","byteStride":8,"count":338086}}},{"buffer":1,"byteOffset":43179148,"byteLength":1352344,"target":34962,"byteStride":4,"extensions":{"EXT_meshopt_compression":{"buffer":0,"byteOffset":4673092,"byteLength":21165,"mode":"ATTRIBUTES","byteStride":4,"count":338086}}},{"buffer":1,"byteOffset":44531492,"byteLength":1352344,"target":34962,"byteStride":4,"extensions":{"EXT_meshopt_compression":{"buffer":0,"byteOffset":4694260,"byteLength":351961,"mode":"ATTRIBUTES","filter":"OCTAHEDRAL","byteStride":4,"count":338086}}},{"buffer":1,"byteOffset":45883836,"byteLength":925668,"target":34963,"extensions":{"EXT_meshopt_compression":{"buffer":0,"byteOffset":5046224,"byteLength":172089,"mode":"TRIANGLES","byteStride":2,"count":462834}}},{"buffer":1,"byteOffset":46809504,"byteLength":768,"target":34962,"byteStride":4,"extensions":{"EXT_meshopt_compression":{"buffer":0,"byteOffset":5218316,"byteLength":45,"mode":"ATTRIBUTES","byteStride":4,"count":192}}},{"buffer":1,"byteOffset":46810272,"byteLength":768,"target":34962,"byteStride":4,"extensions":{"EXT_meshopt_compression":{"buffer":0,"byteOffset":5218364,"byteLength":235,"mode":"ATTRIBUTES","filter":"OCTAHEDRAL","byteStride":4,"count":192}}},{"buffer":1,"byteOffset":46811040,"byteLength":2342976,"target":34962,"byteStride":8,"extensions":{"EXT_meshopt_compression":{"buffer":0,"byteOffset":5218600,"byteLength":166677,"mode":"ATTRIBUTES","byteStride":8,"count":292872}}},{"buffer":1,"byteOffset":49154016,"byteLength":2342976,"target":34962,"byteStride":8,"extensions":{"EXT_meshopt_compression":{"buffer":0,"byteOffset":5385280,"byteLength":1171011,"mode":"ATTRIBUTES","byteStride":8,"count":292872}}},{"buffer":1,"byteOffset":51496992,"byteLength":1171488,"target":34962,"byteStride":4,"extensions":{"EXT_meshopt_compression":{"buffer":0,"byteOffset":6556292,"byteLength":18341,"mode":"ATTRIBUTES","byteStride":4,"count":292872}}},{"buffer":1,"byteOffset":52668480,"byteLength":1171488,"target":34962,"byteStride":4,"extensions":{"EXT_meshopt_compression":{"buffer":0,"byteOffset":6574636,"byteLength":313242,"mode":"ATTRIBUTES","filter":"OCTAHEDRAL","byteStride":4,"count":292872}}},{"buffer":1,"byteOffset":53839968,"byteLength":768,"target":34962,"byteStride":4,"extensions":{"EXT_meshopt_compression":{"buffer":0,"byteOffset":6887880,"byteLength":235,"mode":"ATTRIBUTES","filter":"OCTAHEDRAL","byteStride":4,"count":192}}},{"buffer":1,"byteOffset":53840736,"byteLength":3188,"target":34962,"byteStride":4,"extensions":{"EXT_meshopt_compression":{"buffer":0,"byteOffset":6888116,"byteLength":85,"mode":"ATTRIBUTES","byteStride":4,"count":797}}},{"buffer":1,"byteOffset":53843924,"byteLength":3188,"target":34962,"byteStride":4,"extensions":{"EXT_meshopt_compression":{"buffer":0,"byteOffset":6888204,"byteLength":749,"mode":"ATTRIBUTES","filter":"OCTAHEDRAL","byteStride":4,"count":797}}},{"buffer":1,"byteOffset":53847112,"byteLength":1220,"target":34962,"byteStride":4,"extensions":{"EXT_meshopt_compression":{"buffer":0,"byteOffset":6888956,"byteLength":53,"mode":"ATTRIBUTES","byteStride":4,"count":305}}},{"buffer":1,"byteOffset":53848332,"byteLength":1220,"target":34962,"byteStride":4,"extensions":{"EXT_meshopt_compression":{"buffer":0,"byteOffset":6889012,"byteLength":282,"mode":"ATTRIBUTES","filter":"OCTAHEDRAL","byteStride":4,"count":305}}},{"buffer":1,"byteOffset":53849552,"byteLength":179288,"target":34962,"byteStride":4,"extensions":{"EXT_meshopt_compression":{"buffer":0,"byteOffset":6889296,"byteLength":2837,"mode":"ATTRIBUTES","byteStride":4,"count":44822}}},{"buffer":1,"byteOffset":54028840,"byteLength":179288,"target":34962,"byteStride":4,"extensions":{"EXT_meshopt_compression":{"buffer":0,"byteOffset":6892136,"byteLength":41717,"mode":"ATTRIBUTES","filter":"OCTAHEDRAL","byteStride":4,"count":44822}}},{"buffer":1,"byteOffset":54208128,"byteLength":1352344,"target":34962,"byteStride":4,"extensions":{"EXT_meshopt_compression":{"buffer":0,"byteOffset":6933856,"byteLength":352760,"mode":"ATTRIBUTES","filter":"OCTAHEDRAL","byteStride":4,"count":338086}}},{"buffer":1,"byteOffset":55560472,"byteLength":2704688,"target":34962,"byteStride":8,"extensions":{"EXT_meshopt_compression":{"buffer":0,"byteOffset":7286616,"byteLength":1335239,"mode":"ATTRIBUTES","byteStride":8,"count":338086}}},{"buffer":1,"byteOffset":58265160,"byteLength":281664,"target":34962,"byteStride":4,"extensions":{"EXT_meshopt_compression":{"buffer":0,"byteOffset":8621856,"byteLength":6069,"mode":"ATTRIBUTES","filter":"OCTAHEDRAL","byteStride":4,"count":70416}}},{"buffer":1,"byteOffset":58546824,"byteLength":1359100,"target":34962,"byteStride":4,"extensions":{"EXT_meshopt_compression":{"buffer":0,"byteOffset":8627928,"byteLength":177291,"mode":"ATTRIBUTES","filter":"OCTAHEDRAL","byteStride":4,"count":339775}}},{"buffer":1,"byteOffset":59905924,"byteLength":6135440,"target":34962,"byteStride":4,"extensions":{"EXT_meshopt_compression":{"buffer":0,"byteOffset":8805220,"byteLength":1265330,"mode":"ATTRIBUTES","filter":"OCTAHEDRAL","byteStride":4,"count":1533860}}},{"buffer":1,"byteOffset":66041364,"byteLength":3769320,"target":34962,"byteStride":4,"extensions":{"EXT_meshopt_compression":{"buffer":0,"byteOffset":10070552,"byteLength":657079,"mode":"ATTRIBUTES","filter":"OCTAHEDRAL","byteStride":4,"count":942330}}},{"buffer":1,"byteOffset":69810684,"byteLength":1427404,"target":34962,"byteStride":4,"extensions":{"EXT_meshopt_compression":{"buffer":0,"byteOffset":10727632,"byteLength":201574,"mode":"ATTRIBUTES","filter":"OCTAHEDRAL","byteStride":4,"count":356851}}},{"buffer":1,"byteOffset":71238088,"byteLength":1431144,"target":34962,"byteStride":4,"extensions":{"EXT_meshopt_compression":{"buffer":0,"byteOffset":10929208,"byteLength":151870,"mode":"ATTRIBUTES","filter":"OCTAHEDRAL","byteStride":4,"count":357786}}},{"buffer":1,"byteOffset":72669232,"byteLength":908424,"target":34962,"byteStride":4,"extensions":{"EXT_meshopt_compression":{"buffer":0,"byteOffset":11081080,"byteLength":115228,"mode":"ATTRIBUTES","filter":"OCTAHEDRAL","byteStride":4,"count":227106}}},{"buffer":1,"byteOffset":73577656,"byteLength":562240,"target":34962,"byteStride":4,"extensions":{"EXT_meshopt_compression":{"buffer":0,"byteOffset":11196308,"byteLength":110107,"mode":"ATTRIBUTES","filter":"OCTAHEDRAL","byteStride":4,"count":140560}}},{"buffer":1,"byteOffset":74139896,"byteLength":96,"target":34962,"byteStride":4,"extensions":{"EXT_meshopt_compression":{"buffer":0,"byteOffset":11306416,"byteLength":55,"mode":"ATTRIBUTES","filter":"OCTAHEDRAL","byteStride":4,"count":24}}},{"buffer":1,"byteOffset":74139992,"byteLength":561056,"target":34962,"byteStride":4,"extensions":{"EXT_meshopt_compression":{"buffer":0,"byteOffset":11306472,"byteLength":99469,"mode":"ATTRIBUTES","filter":"OCTAHEDRAL","byteStride":4,"count":140264}}},{"buffer":1,"byteOffset":74701048,"byteLength":1486504,"target":34962,"byteStride":4,"extensions":{"EXT_meshopt_compression":{"buffer":0,"byteOffset":11405944,"byteLength":155887,"mode":"ATTRIBUTES","filter":"OCTAHEDRAL","byteStride":4,"count":371626}}},{"buffer":1,"byteOffset":76187552,"byteLength":247616,"target":34962,"byteStride":4,"extensions":{"EXT_meshopt_compression":{"buffer":0,"byteOffset":11561832,"byteLength":61186,"mode":"ATTRIBUTES","filter":"OCTAHEDRAL","byteStride":4,"count":61904}}},{"buffer":1,"byteOffset":76435168,"byteLength":1485696,"target":34962,"byteStride":4,"extensions":{"EXT_meshopt_compression":{"buffer":0,"byteOffset":11623020,"byteLength":374363,"mode":"ATTRIBUTES","filter":"OCTAHEDRAL","byteStride":4,"count":371424}}},{"buffer":1,"byteOffset":77920864,"byteLength":209932,"target":34962,"byteStride":4,"extensions":{"EXT_meshopt_compression":{"buffer":0,"byteOffset":11997384,"byteLength":104553,"mode":"ATTRIBUTES","filter":"OCTAHEDRAL","byteStride":4,"count":52483}}},{"buffer":1,"byteOffset":78130796,"byteLength":16,"target":34962,"byteStride":4,"extensions":{"EXT_meshopt_compression":{"buffer":0,"byteOffset":12101940,"byteLength":37,"mode":"ATTRIBUTES","filter":"OCTAHEDRAL","byteStride":4,"count":4}}},{"buffer":1,"byteOffset":78130812,"byteLength":16,"target":34962,"byteStride":4,"extensions":{"EXT_meshopt_compression":{"buffer":0,"byteOffset":12101980,"byteLength":37,"mode":"ATTRIBUTES","filter":"OCTAHEDRAL","byteStride":4,"count":4}}},{"buffer":1,"byteOffset":78130828,"byteLength":2704688,"target":34962,"byteStride":8,"extensions":{"EXT_meshopt_compression":{"buffer":0,"byteOffset":12102020,"byteLength":1535430,"mode":"ATTRIBUTES","byteStride":8,"count":338086}}},{"buffer":1,"byteOffset":80835516,"byteLength":1536,"target":34962,"byteStride":8,"extensions":{"EXT_meshopt_compression":{"buffer":0,"byteOffset":13637452,"byteLength":898,"mode":"ATTRIBUTES","byteStride":8,"count":192}}},{"buffer":1,"byteOffset":80837052,"byteLength":768,"target":34962,"byteStride":4,"extensions":{"EXT_meshopt_compression":{"buffer":0,"byteOffset":13638352,"byteLength":45,"mode":"ATTRIBUTES","byteStride":4,"count":192}}},{"buffer":1,"byteOffset":80837820,"byteLength":768,"target":34962,"byteStride":4,"extensions":{"EXT_meshopt_compression":{"buffer":0,"byteOffset":13638400,"byteLength":585,"mode":"ATTRIBUTES","byteStride":4,"count":192}}},{"buffer":1,"byteOffset":80838588,"byteLength":2342976,"target":34962,"byteStride":8,"extensions":{"EXT_meshopt_compression":{"buffer":0,"byteOffset":13638988,"byteLength":1361507,"mode":"ATTRIBUTES","byteStride":8,"count":292872}}},{"buffer":1,"byteOffset":83181564,"byteLength":1536,"target":34962,"byteStride":8,"extensions":{"EXT_meshopt_compression":{"buffer":0,"byteOffset":15000496,"byteLength":919,"mode":"ATTRIBUTES","byteStride":8,"count":192}}},{"buffer":1,"byteOffset":83183100,"byteLength":6376,"target":34962,"byteStride":8,"extensions":{"EXT_meshopt_compression":{"buffer":0,"byteOffset":15001416,"byteLength":4390,"mode":"ATTRIBUTES","byteStride":8,"count":797}}},{"buffer":1,"byteOffset":83189476,"byteLength":3188,"target":34962,"byteStride":4,"extensions":{"EXT_meshopt_compression":{"buffer":0,"byteOffset":15005808,"byteLength":85,"mode":"ATTRIBUTES","byteStride":4,"count":797}}},{"buffer":1,"byteOffset":83192664,"byteLength":3188,"target":34962,"byteStride":4,"extensions":{"EXT_meshopt_compression":{"buffer":0,"byteOffset":15005896,"byteLength":2511,"mode":"ATTRIBUTES","byteStride":4,"count":797}}},{"buffer":1,"byteOffset":83195852,"byteLength":2440,"target":34962,"byteStride":8,"extensions":{"EXT_meshopt_compression":{"buffer":0,"byteOffset":15008408,"byteLength":1604,"mode":"ATTRIBUTES","byteStride":8,"count":305}}},{"buffer":1,"byteOffset":83198292,"byteLength":1220,"target":34962,"byteStride":4,"extensions":{"EXT_meshopt_compression":{"buffer":0,"byteOffset":15010012,"byteLength":53,"mode":"ATTRIBUTES","byteStride":4,"count":305}}},{"buffer":1,"byteOffset":83199512,"byteLength":1220,"target":34962,"byteStride":4,"extensions":{"EXT_meshopt_compression":{"buffer":0,"byteOffset":15010068,"byteLength":834,"mode":"ATTRIBUTES","byteStride":4,"count":305}}},{"buffer":1,"byteOffset":83200732,"byteLength":358576,"target":34962,"byteStride":8,"extensions":{"EXT_meshopt_compression":{"buffer":0,"byteOffset":15010904,"byteLength":216908,"mode":"ATTRIBUTES","byteStride":8,"count":44822}}},{"buffer":1,"byteOffset":83559308,"byteLength":179288,"target":34962,"byteStride":4,"extensions":{"EXT_meshopt_compression":{"buffer":0,"byteOffset":15227812,"byteLength":2837,"mode":"ATTRIBUTES","byteStride":4,"count":44822}}},{"buffer":1,"byteOffset":83738596,"byteLength":179288,"target":34962,"byteStride":4,"extensions":{"EXT_meshopt_compression":{"buffer":0,"byteOffset":15230652,"byteLength":110614,"mode":"ATTRIBUTES","byteStride":4,"count":44822}}},{"buffer":1,"byteOffset":83917884,"byteLength":2704688,"target":34962,"byteStride":8,"extensions":{"EXT_meshopt_compression":{"buffer":0,"byteOffset":15341268,"byteLength":1548365,"mode":"ATTRIBUTES","byteStride":8,"count":338086}}},{"buffer":1,"byteOffset":86622572,"byteLength":1536,"target":34962,"byteStride":8,"extensions":{"EXT_meshopt_compression":{"buffer":0,"byteOffset":16889636,"byteLength":919,"mode":"ATTRIBUTES","byteStride":8,"count":192}}},{"buffer":1,"byteOffset":86624108,"byteLength":563328,"target":34962,"byteStride":8,"extensions":{"EXT_meshopt_compression":{"buffer":0,"byteOffset":16890556,"byteLength":166433,"mode":"ATTRIBUTES","byteStride":8,"count":70416}}},{"buffer":1,"byteOffset":87187436,"byteLength":281664,"target":34962,"byteStride":4,"extensions":{"EXT_meshopt_compression":{"buffer":0,"byteOffset":17056992,"byteLength":187842,"mode":"ATTRIBUTES","byteStride":4,"count":70416}}},{"buffer":1,"byteOffset":87469100,"byteLength":2718200,"target":34962,"byteStride":8,"extensions":{"EXT_meshopt_compression":{"buffer":0,"byteOffset":17244836,"byteLength":1165297,"mode":"ATTRIBUTES","byteStride":8,"count":339775}}},{"buffer":1,"byteOffset":90187300,"byteLength":1359100,"target":34962,"byteStride":4,"extensions":{"EXT_meshopt_compression":{"buffer":0,"byteOffset":18410136,"byteLength":771489,"mode":"ATTRIBUTES","byteStride":4,"count":339775}}},{"buffer":1,"byteOffset":91546400,"byteLength":12270880,"target":34962,"byteStride":8,"extensions":{"EXT_meshopt_compression":{"buffer":0,"byteOffset":19181628,"byteLength":5786286,"mode":"ATTRIBUTES","byteStride":8,"count":1533860}}},{"buffer":1,"byteOffset":103817280,"byteLength":6135440,"target":34962,"byteStride":4,"extensions":{"EXT_meshopt_compression":{"buffer":0,"byteOffset":24967916,"byteLength":2988763,"mode":"ATTRIBUTES","byteStride":4,"count":1533860}}},{"buffer":1,"byteOffset":109952720,"byteLength":7538640,"target":34962,"byteStride":8,"extensions":{"EXT_meshopt_compression":{"buffer":0,"byteOffset":27956680,"byteLength":3821955,"mode":"ATTRIBUTES","byteStride":8,"count":942330}}},{"buffer":1,"byteOffset":117491360,"byteLength":3769320,"target":34962,"byteStride":4,"extensions":{"EXT_meshopt_compression":{"buffer":0,"byteOffset":31778636,"byteLength":2212919,"mode":"ATTRIBUTES","byteStride":4,"count":942330}}},{"buffer":1,"byteOffset":121260680,"byteLength":2854808,"target":34962,"byteStride":8,"extensions":{"EXT_meshopt_compression":{"buffer":0,"byteOffset":33991556,"byteLength":1328721,"mode":"ATTRIBUTES","byteStride":8,"count":356851}}},{"buffer":1,"byteOffset":124115488,"byteLength":1427404,"target":34962,"byteStride":4,"extensions":{"EXT_meshopt_compression":{"buffer":0,"byteOffset":35320280,"byteLength":813484,"mode":"ATTRIBUTES","byteStride":4,"count":356851}}},{"buffer":1,"byteOffset":125542892,"byteLength":2862288,"target":34962,"byteStride":8,"extensions":{"EXT_meshopt_compression":{"buffer":0,"byteOffset":36133764,"byteLength":1260157,"mode":"ATTRIBUTES","byteStride":8,"count":357786}}},{"buffer":1,"byteOffset":128405180,"byteLength":1431144,"target":34962,"byteStride":4,"extensions":{"EXT_meshopt_compression":{"buffer":0,"byteOffset":37393924,"byteLength":837498,"mode":"ATTRIBUTES","byteStride":4,"count":357786}}},{"buffer":1,"byteOffset":129836324,"byteLength":1816848,"target":34962,"byteStride":8,"extensions":{"EXT_meshopt_compression":{"buffer":0,"byteOffset":38231424,"byteLength":846764,"mode":"ATTRIBUTES","byteStride":8,"count":227106}}},{"buffer":1,"byteOffset":131653172,"byteLength":908424,"target":34962,"byteStride":4,"extensions":{"EXT_meshopt_compression":{"buffer":0,"byteOffset":39078188,"byteLength":532375,"mode":"ATTRIBUTES","byteStride":4,"count":227106}}},{"buffer":1,"byteOffset":132561596,"byteLength":1124480,"target":34962,"byteStride":8,"extensions":{"EXT_meshopt_compression":{"buffer":0,"byteOffset":39610564,"byteLength":513805,"mode":"ATTRIBUTES","byteStride":8,"count":140560}}},{"buffer":1,"byteOffset":133686076,"byteLength":562240,"target":34962,"byteStride":4,"extensions":{"EXT_meshopt_compression":{"buffer":0,"byteOffset":40124372,"byteLength":290019,"mode":"ATTRIBUTES","byteStride":4,"count":140560}}},{"buffer":1,"byteOffset":134248316,"byteLength":192,"target":34962,"byteStride":8,"extensions":{"EXT_meshopt_compression":{"buffer":0,"byteOffset":40414392,"byteLength":120,"mode":"ATTRIBUTES","byteStride":8,"count":24}}},{"buffer":1,"byteOffset":134248508,"byteLength":96,"target":34962,"byteStride":4,"extensions":{"EXT_meshopt_compression":{"buffer":0,"byteOffset":40414512,"byteLength":112,"mode":"ATTRIBUTES","byteStride":4,"count":24}}},{"buffer":1,"byteOffset":134248604,"byteLength":1122112,"target":34962,"byteStride":8,"extensions":{"EXT_meshopt_compression":{"buffer":0,"byteOffset":40414624,"byteLength":541126,"mode":"ATTRIBUTES","byteStride":8,"count":140264}}},{"buffer":1,"byteOffset":135370716,"byteLength":561056,"target":34962,"byteStride":4,"extensions":{"EXT_meshopt_compression":{"buffer":0,"byteOffset":40955752,"byteLength":289524,"mode":"ATTRIBUTES","byteStride":4,"count":140264}}},{"buffer":1,"byteOffset":135931772,"byteLength":2973008,"target":34962,"byteStride":8,"extensions":{"EXT_meshopt_compression":{"buffer":0,"byteOffset":41245276,"byteLength":1316755,"mode":"ATTRIBUTES","byteStride":8,"count":371626}}},{"buffer":1,"byteOffset":138904780,"byteLength":1486504,"target":34962,"byteStride":4,"extensions":{"EXT_meshopt_compression":{"buffer":0,"byteOffset":42562032,"byteLength":858012,"mode":"ATTRIBUTES","byteStride":4,"count":371626}}},{"buffer":1,"byteOffset":140391284,"byteLength":495232,"target":34962,"byteStride":8,"extensions":{"EXT_meshopt_compression":{"buffer":0,"byteOffset":43420044,"byteLength":311633,"mode":"ATTRIBUTES","byteStride":8,"count":61904}}},{"buffer":1,"byteOffset":140886516,"byteLength":247616,"target":34962,"byteStride":4,"extensions":{"EXT_meshopt_compression":{"buffer":0,"byteOffset":43731680,"byteLength":208486,"mode":"ATTRIBUTES","byteStride":4,"count":61904}}},{"buffer":1,"byteOffset":141134132,"byteLength":2971392,"target":34962,"byteStride":8,"extensions":{"EXT_meshopt_compression":{"buffer":0,"byteOffset":43940168,"byteLength":1822155,"mode":"ATTRIBUTES","byteStride":8,"count":371424}}},{"buffer":1,"byteOffset":144105524,"byteLength":1485696,"target":34962,"byteStride":4,"extensions":{"EXT_meshopt_compression":{"buffer":0,"byteOffset":45762324,"byteLength":1112813,"mode":"ATTRIBUTES","byteStride":4,"count":371424}}},{"buffer":1,"byteOffset":145591220,"byteLength":192,"target":34962,"byteStride":8,"extensions":{"EXT_meshopt_compression":{"buffer":0,"byteOffset":46875140,"byteLength":123,"mode":"ATTRIBUTES","byteStride":8,"count":24}}},{"buffer":1,"byteOffset":145591412,"byteLength":419864,"target":34962,"byteStride":8,"extensions":{"EXT_meshopt_compression":{"buffer":0,"byteOffset":46875264,"byteLength":213934,"mode":"ATTRIBUTES","byteStride":8,"count":52483}}},{"buffer":1,"byteOffset":146011276,"byteLength":209932,"target":34962,"byteStride":4,"extensions":{"EXT_meshopt_compression":{"buffer":0,"byteOffset":47089200,"byteLength":142354,"mode":"ATTRIBUTES","byteStride":4,"count":52483}}},{"buffer":1,"byteOffset":146221208,"byteLength":32,"target":34962,"byteStride":8,"extensions":{"EXT_meshopt_compression":{"buffer":0,"byteOffset":47231556,"byteLength":60,"mode":"ATTRIBUTES","byteStride":8,"count":4}}},{"buffer":1,"byteOffset":146221240,"byteLength":16,"target":34962,"byteStride":4,"extensions":{"EXT_meshopt_compression":{"buffer":0,"byteOffset":47231616,"byteLength":53,"mode":"ATTRIBUTES","byteStride":4,"count":4}}},{"buffer":1,"byteOffset":146221256,"byteLength":32,"target":34962,"byteStride":8,"extensions":{"EXT_meshopt_compression":{"buffer":0,"byteOffset":47231672,"byteLength":60,"mode":"ATTRIBUTES","byteStride":8,"count":4}}}],"samplers":[{"magFilter":9729,"minFilter":9987,"wrapS":10497,"wrapT":10497}],"textures":[{"source":1,"sampler":0},{"source":0,"sampler":0},{"source":2,"sampler":0},{"source":3,"sampler":0},{"source":4,"sampler":0},{"source":7,"sampler":0},{"source":6,"sampler":0},{"source":8,"sampler":0},{"source":5,"sampler":0}],"images":[{"name":"TexturesCom_BuildingsIndustrial0136_1_M","mimeType":"image/jpeg","uri":"TexturesCom_BuildingsIndustrial0136_1_M.jpg"},{"name":"xian-vanke-ruyuan-sales-center-by-one-cu-26","mimeType":"image/jpeg","uri":"xian-vanke-ruyuan-sales-center-by-one-cu-26.jpg"},{"name":"TexturesCom_BuildingsIndustrial0136_1_M","mimeType":"image/png","uri":"TexturesCom_BuildingsIndustrial0136_1_M.png"},{"name":"tumblr_n9ji2jhLKm1qe0lqqo1_1280","mimeType":"image/png","uri":"tumblr_n9ji2jhLKm1qe0lqqo1_1280.png"},{"name":"tumblr_n9ji2jhLKm1qe0lqqo1_1280","mimeType":"image/png","uri":"tumblr_n9ji2jhLKm1qe0lqqo1_1280-1.png"},{"name":"Male_02_Spec","mimeType":"image/jpeg","uri":"Male_02_Spec.jpg"},{"name":"Male_02_Normal","mimeType":"image/jpeg","uri":"Male_02_Normal.jpg"},{"name":"Male_02_Colour","mimeType":"image/jpeg","uri":"Male_02_Colour.jpg"},{"name":"Male_02_Spec","mimeType":"image/png","uri":"Male_02_Spec.png"}],"buffers":[{"uri":"cave-temple.bin","byteLength":47231732},{"byteLength":146221288,"extensions":{"EXT_meshopt_compression":{"fallback":true}}}],"materials":[{"name":"Material.010","doubleSided":true,"pbrMetallicRoughness":{"metallicFactor":0.5681818127632141,"baseColorTexture":{"index":0,"extensions":{"KHR_texture_transform":{"offset":[0,-0.060000061988830566],"scale":[1.0600000619888306,1.0600000619888306]}}},"metallicRoughnessTexture":{"index":2,"extensions":{"KHR_texture_transform":{"offset":[-1.999999999999998,1.00000008742278],"rotation":1.5707963705062866,"scale":[2,2]}}}},"normalTexture":{"index":1,"extensions":{"KHR_texture_transform":{"offset":[-1.999999999999998,1.00000008742278],"rotation":1.5707963705062866,"scale":[2,2]}}},"extensions":{"KHR_materials_ior":{"ior":1.4500000476837158},"KHR_materials_specular":{"specularColorFactor":[1.281818151473999,1.281818151473999,1.281818151473999]}}},{"name":"Material.007","doubleSided":true,"pbrMetallicRoughness":{"baseColorFactor":[0,0,0,1]},"emissiveFactor":[1,0.17914637923240662,0.04973815754055977],"extensions":{"KHR_materials_emissive_strength":{"emissiveStrength":20}}},{"name":"Material.006","doubleSided":true,"pbrMetallicRoughness":{"metallicFactor":0.5681818127632141,"baseColorTexture":{"index":0,"extensions":{"KHR_texture_transform":{"offset":[0,0.5999999344348907],"scale":[0.40000006556510925,0.40000006556510925]}}},"metallicRoughnessTexture":{"index":2,"extensions":{"KHR_texture_transform":{"offset":[-0.8000000119209282,1.0000000349691125],"rotation":1.5707963705062866,"scale":[0.800000011920929,0.800000011920929]}}}},"normalTexture":{"index":1,"extensions":{"KHR_texture_transform":{"offset":[-0.8000000119209282,1.0000000349691125],"rotation":1.5707963705062866,"scale":[0.800000011920929,0.800000011920929]}}},"extensions":{"KHR_materials_ior":{"ior":1.4500000476837158},"KHR_materials_specular":{"specularColorFactor":[1.281818151473999,1.281818151473999,1.281818151473999]}}},{"name":"Material.009","doubleSided":true,"pbrMetallicRoughness":{"metallicFactor":0,"baseColorTexture":{"index":0,"extensions":{"KHR_texture_transform":{"offset":[0,0.9630860098055603],"scale":[0.03706449284532166,0.03691399019443972]}}},"metallicRoughnessTexture":{"index":4,"extensions":{"KHR_texture_transform":{"offset":[0,0.7555012316155383],"scale":[0.25125628020293134,0.24449876838446177]}}}},"normalTexture":{"index":3,"extensions":{"KHR_texture_transform":{"offset":[0,0.7555012316155383],"scale":[0.25125628020293134,0.24449876838446177]}}}},{"name":"Material.002","doubleSided":true,"pbrMetallicRoughness":{"metallicFactor":0.5681818127632141,"baseColorTexture":{"index":0,"extensions":{"KHR_texture_transform":{"offset":[0,0.5999999344348907],"scale":[0.40000006556510925,0.40000006556510925]}}},"metallicRoughnessTexture":{"index":2,"extensions":{"KHR_texture_transform":{"offset":[-0.8000000119209282,1.0000000349691125],"rotation":1.5707963705062866,"scale":[0.800000011920929,0.800000011920929]}}}},"normalTexture":{"index":1,"extensions":{"KHR_texture_transform":{"offset":[-0.8000000119209282,1.0000000349691125],"rotation":1.5707963705062866,"scale":[0.800000011920929,0.800000011920929]}}},"extensions":{"KHR_materials_ior":{"ior":1.4500000476837158},"KHR_materials_specular":{"specularColorFactor":[1.281818151473999,1.281818151473999,1.281818151473999]}}},{"name":"Material.003","doubleSided":true,"pbrMetallicRoughness":{"roughnessFactor":0.38181817531585693,"baseColorTexture":{"index":5},"metallicRoughnessTexture":{"index":7}},"normalTexture":{"index":6,"scale":1.5},"extensions":{"KHR_materials_ior":{"ior":1.4500000476837158},"KHR_materials_specular":{"specularTexture":{"index":8}}}},{"name":"Material.001","doubleSided":true,"pbrMetallicRoughness":{"baseColorFactor":[0,0,0,1]},"emissiveFactor":[1,0.5028864145278931,0.21586059033870697],"extensions":{"KHR_materials_emissive_strength":{"emissiveStrength":3.4000000953674316}}}],"meshes":[{"name":"4_hair_0.1_0_0.003","primitives":[{"attributes":{"TEXCOORD_0":1,"TEXCOORD_1":2,"COLOR_0":3,"COLOR_1":3,"NORMAL":4,"POSITION":57},"mode":4,"material":0,"indices":0},{"attributes":{"COLOR_0":6,"COLOR_1":6,"NORMAL":7,"POSITION":58,"TEXCOORD_0":59,"TEXCOORD_1":60},"mode":4,"material":1,"indices":5}]},{"name":"4_hair_0.1_0_0.002","primitives":[{"attributes":{"TEXCOORD_0":9,"TEXCOORD_1":10,"COLOR_0":11,"COLOR_1":11,"NORMAL":12,"POSITION":61},"mode":4,"material":0,"indices":8},{"attributes":{"NORMAL":13,"POSITION":62,"COLOR_0":6,"COLOR_1":6,"TEXCOORD_0":59,"TEXCOORD_1":60},"mode":4,"material":1,"indices":5}]},{"name":"4_hair_0.1_0_0.004","primitives":[{"attributes":{"COLOR_0":15,"COLOR_1":15,"NORMAL":16,"POSITION":63,"TEXCOORD_0":64,"TEXCOORD_1":65},"mode":4,"material":0,"indices":14}]},{"name":"4_hair_0.1_0_0.005","primitives":[{"attributes":{"COLOR_0":18,"COLOR_1":18,"NORMAL":19,"POSITION":66,"TEXCOORD_0":67,"TEXCOORD_1":68},"mode":4,"material":2,"indices":17}]},{"name":"4_hair_0.1_0_0.006","primitives":[{"attributes":{"COLOR_0":21,"COLOR_1":21,"NORMAL":22,"POSITION":69,"TEXCOORD_0":70,"TEXCOORD_1":71},"mode":4,"material":0,"indices":20}]},{"name":"4_hair_0.1_0_0.001","primitives":[{"attributes":{"NORMAL":24,"TEXCOORD_1":25,"POSITION":72,"TEXCOORD_0":1,"COLOR_0":3,"COLOR_1":3},"mode":4,"material":0,"indices":23},{"attributes":{"COLOR_0":6,"COLOR_1":6,"NORMAL":7,"POSITION":73,"TEXCOORD_0":59,"TEXCOORD_1":60},"mode":4,"material":1,"indices":5}]},{"name":"Cube.011","primitives":[{"attributes":{"NORMAL":27,"POSITION":74,"TEXCOORD_0":75},"mode":4,"material":0,"indices":26}]},{"name":"Cube.001","primitives":[{"attributes":{"NORMAL":29,"POSITION":76,"TEXCOORD_0":77},"mode":4,"material":0,"indices":28}]},{"name":"Cube.002","primitives":[{"attributes":{"NORMAL":31,"POSITION":78,"TEXCOORD_0":79},"mode":4,"material":0,"indices":30}]},{"name":"Cube.003","primitives":[{"attributes":{"NORMAL":33,"POSITION":80,"TEXCOORD_0":81},"mode":4,"material":0,"indices":32}]},{"name":"Cube.004","primitives":[{"attributes":{"NORMAL":35,"POSITION":82,"TEXCOORD_0":83},"mode":4,"material":0,"indices":34}]},{"name":"Cube.005","primitives":[{"attributes":{"NORMAL":37,"POSITION":84,"TEXCOORD_0":85},"mode":4,"material":0,"indices":36}]},{"name":"Cube.006","primitives":[{"attributes":{"NORMAL":39,"POSITION":86,"TEXCOORD_0":87},"mode":4,"material":0,"indices":38}]},{"name":"Cube.007","primitives":[{"attributes":{"NORMAL":41,"POSITION":88,"TEXCOORD_0":89},"mode":4,"material":0,"indices":40}]},{"name":"Cube.008","primitives":[{"attributes":{"NORMAL":43,"POSITION":90,"TEXCOORD_0":91},"mode":4,"indices":42}]},{"name":"Cube.009","primitives":[{"attributes":{"NORMAL":45,"POSITION":92,"TEXCOORD_0":93},"mode":4,"material":0,"indices":44}]},{"name":"Cube.010","primitives":[{"attributes":{"NORMAL":47,"POSITION":94,"TEXCOORD_0":95},"mode":4,"material":0,"indices":46}]},{"name":"Cube.013","primitives":[{"attributes":{"NORMAL":49,"POSITION":96,"TEXCOORD_0":97},"mode":4,"material":3,"indices":48}]},{"name":"Cube.012","primitives":[{"attributes":{"NORMAL":49,"POSITION":96,"TEXCOORD_0":97},"mode":4,"material":0,"indices":48}]},{"name":"Cube.016","primitives":[{"attributes":{"NORMAL":51,"POSITION":98,"TEXCOORD_0":99},"mode":4,"material":0,"indices":50}]},{"name":"Cube.014","primitives":[{"attributes":{"NORMAL":43,"POSITION":100,"TEXCOORD_0":91},"mode":4,"material":4,"indices":42}]},{"name":"Cube.015","primitives":[{"attributes":{"NORMAL":51,"POSITION":98,"TEXCOORD_0":99},"mode":4,"material":0,"indices":50}]},{"name":"Cube.017","primitives":[{"attributes":{"NORMAL":51,"POSITION":98,"TEXCOORD_0":99},"mode":4,"material":0,"indices":50}]},{"name":"Male_02.001","primitives":[{"attributes":{"NORMAL":53,"POSITION":101,"TEXCOORD_0":102},"mode":4,"material":5,"indices":52}]},{"name":"Male_02.004","primitives":[{"attributes":{"NORMAL":53,"POSITION":101,"TEXCOORD_0":102},"mode":4,"material":5,"indices":52}]},{"name":"Male_02.003","primitives":[{"attributes":{"NORMAL":53,"POSITION":101,"TEXCOORD_0":102},"mode":4,"material":5,"indices":52}]},{"name":"Plane","primitives":[{"attributes":{"NORMAL":55,"POSITION":103,"TEXCOORD_0":104},"mode":4,"material":0,"indices":54}]},{"name":"Plane.001","primitives":[{"attributes":{"NORMAL":56,"POSITION":105,"TEXCOORD_0":104},"mode":4,"material":6,"indices":54}]}],"nodes":[{"name":"4_hair_0.1_0_0.001","translation":[7.973492033779621,13.46924638748169,33.59237003326416],"scale":[7.8180155754089355,7.8180155754089355,7.8180155754089355],"mesh":0},{"name":"4_hair_0.1_0_0.002","translation":[-0.00009613484144210815,5.095756977796555,7.843223690986633],"scale":[3.59035924077034,3.59035924077034,3.59035924077034],"mesh":1},{"name":"4_hair_0.1_0_0.003","translation":[-0.0011349320411682129,3.461442470550537,8.726049900054932],"scale":[0.12592148780822754,0.12592148780822754,0.12592148780822754],"mesh":2},{"name":"4_hair_0.1_0_0.004","translation":[-0.005276836454868317,3.5604729652404785,1.6361656785011292],"scale":[0.26790690422058105,0.26790690422058105,0.26790690422058105],"mesh":3},{"name":"4_hair_0.1_0_0.005","translation":[-0.0088447704911232,1.1110936999320984,5.9394399374723434],"scale":[2.4753896594047546,2.4753896594047546,2.4753896594047546],"mesh":4},{"name":"4_hair_0.1_0_0.006","translation":[6.692654371261597,3.323517680168152,-2.808455467224121],"scale":[6.416759610176086,6.416759610176086,6.416759610176086],"mesh":5},{"name":"Cube","translation":[0.04815244674682617,0,0],"scale":[14.6056547164917,14.6056547164917,14.6056547164917],"mesh":6},{"name":"Cube.001","translation":[-0.000003414178201601348,0.9351421594619751,3.9012575149536133],"rotation":[0,0.9999999999999868,0,-1.629206849429401e-7],"scale":[19.23592281341654,19.235922813415527,19.23592281341654],"mesh":7},{"name":"Cube.002","translation":[0.10439157485961914,2.00812104344368,9.720165252685547],"scale":[43.87612533569336,43.87612533569336,43.87612533569336],"mesh":8},{"name":"Cube.003","translation":[0,4.381605863571167,14.023207664489746],"scale":[40.22517490386963,40.22517490386963,40.22517490386963],"mesh":9},{"name":"Cube.004","translation":[0,1.322883129119873,-1.1275100708007812],"scale":[16.170089721679688,16.170089721679688,16.170089721679688],"mesh":10},{"name":"Cube.005","translation":[-5.685299983462694e-7,5.874587137851481,-2.629441591228499],"rotation":[0.0251925586996347,0.02519264072522662,-0.7066577077872717,0.7066580147884503],"scale":[17.712601972164897,17.712601972164887,17.712600711217092],"mesh":11},{"name":"Cube.006","translation":[2.898938591601208e-7,12.864382126643697,-0.7159538132781623],"rotation":[-0.02519264438604999,0.025192558768841612,0.7066580058107277,0.7066577166320217],"scale":[15.794243989102133,15.794243989102144,15.794242861755961],"mesh":12},{"name":"Cube.007","translation":[-0.0000020265579223632812,9.411600083112717,20.951892852783203],"scale":[33.744937896728516,33.744937896728516,33.744937896728516],"mesh":13},{"name":"Cube.008","translation":[0,0.3587465286254883,0],"scale":[1.3587465286254883,1.3587465286254883,1.3587465286254883],"mesh":14},{"name":"Cube.009","translation":[-0.000008821487426757812,1.3528491711052375,20.180000241503187],"rotation":[0.0010727662945178452,0,0,0.9999994245860732],"scale":[34.16450023651123,34.164500236601725,34.164500236601725],"mesh":15},{"name":"Cube.010","translation":[-0.0000017376037078314449,22.736349307386273,7.1374152161568345],"rotation":[-0.02519264438604999,0.02519255876884161,0.7066580058107277,0.7066577166320217],"scale":[23.27515816349516,23.275158163495178,23.275156502183577],"mesh":16},{"name":"Cube.011","translation":[0.25522637367248535,26.56814767420292,0],"scale":[26.921525940299034,26.921525940299034,26.921525940299034],"mesh":17},{"name":"Cube.012","translation":[0.25522637367248535,26.56814767420292,0],"scale":[26.921525940299034,26.921525940299034,26.921525940299034],"mesh":18},{"name":"Cube.013","translation":[-8.312068574793066e-8,14.140062019391593,-13.22153982675778],"rotation":[0,0.7071068286895689,0,0.7071067336835231],"scale":[58.84030885553503,58.84030094981895,58.84030885553503],"mesh":19},{"name":"Cube.014","translation":[-11.945440173149109,70.83047480136156,-128.86873149871826],"scale":[14.191612243652344,14.191612243652344,14.191612243652344],"mesh":20},{"name":"Cube.015","translation":[-3.807894153698443e-8,14.026016727089882,-12.8863051318442],"rotation":[0,0.7071068286895689,0,0.7071067336835231],"scale":[26.955704958002062,26.95570133626461,26.955704958002062],"mesh":21},{"name":"Cube.016","translation":[-3.807894153698443e-8,27.319538965821266,-12.8863051318442],"rotation":[0,0.7071068286895689,0,0.7071067336835231],"scale":[26.955704958002062,26.95570133626461,26.955704958002062],"mesh":22},{"name":"Male_02.001","translation":[0.0016859030728584804,1.9514876665520537,14.680866136752053],"rotation":[-0.11952692745003558,-0.6969312968851834,0.6969314167066486,-0.11952690683052228],"scale":[0.5023648516786829,0.502364844398225,0.5023648984243885],"mesh":23},{"name":"Male_02.002","translation":[0.0016859030728584804,10.088067895357597,24.545877351962012],"rotation":[-0.11952692745003558,-0.6969312968851834,0.6969314167066486,-0.11952690683052228],"scale":[0.5023648516786829,0.502364844398225,0.5023648984243885],"mesh":24},{"name":"Male_02.003","translation":[0.5547076208228586,2.0067459117779474,32.779922627858774],"rotation":[1.9716011508338143e-15,-0.707106661977241,0.7071069003958246,1.1520230142250269e-7],"scale":[0.5023648563122634,0.502364873507455,0.5023648735074665],"mesh":25},{"name":"Plane","translation":[0,1.4130239486694336,0],"scale":[53.09135437011719,53.09135437011719,53.09135437011719],"mesh":26},{"name":"Plane.001","translation":[0,6.374714374542236,-11.172329902648926],"scale":[53.09135375968617,53.09135375968617,53.09135375968617],"mesh":27}],"scenes":[{"name":"Scene","nodes":[6,7,8,9,10,11,12,13,15,16,17,18,19,21,22,26]}],"scene":0,"extensionsUsed":["EXT_meshopt_compression","KHR_materials_emissive_strength","KHR_materials_ior","KHR_materials_specular","KHR_mesh_quantization","KHR_texture_transform"],"extensionsRequired":["EXT_meshopt_compression","KHR_mesh_quantization","KHR_texture_transform"]}