{
	"asset":{
		"generator":"Khronos glTF Blender I/O v5.2.39",
		"version":"2.0"
	},
	"extensionsUsed":[
		"KHR_materials_clearcoat",
		"KHR_materials_emissive_strength",
		"KHR_materials_specular",
		"KHR_materials_ior",
		"KHR_materials_sheen"
	],
	"scene":0,
	"scenes":[
		{
			"name":"Scene",
			"nodes":[
				30,
				31,
				32,
				33,
				34,
				35,
				36,
				37,
				38,
				39,
				40,
				41,
				42,
				43,
				44,
				45,
				46
			]
		}
	],
	"nodes":[
		{
			"name":"\u5168\u3066\u306e\u89aa"
		},
		{
			"mesh":0,
			"name":"000_\u6750\u8cea1",
			"skin":0
		},
		{
			"mesh":1,
			"name":"00B_\u6750\u8cea12",
			"skin":0
		},
		{
			"mesh":2,
			"name":"001_\u6750\u8cea2",
			"skin":0
		},
		{
			"mesh":3,
			"name":"002_\u6750\u8cea3",
			"skin":0
		},
		{
			"mesh":4,
			"name":"FLAG",
			"skin":0
		},
		{
			"mesh":5,
			"name":"FLAG2",
			"skin":0
		},
		{
			"mesh":6,
			"name":"U1",
			"skin":0
		},
		{
			"mesh":7,
			"name":"\u4e2d\u95f4\u5730\u677f",
			"skin":0
		},
		{
			"mesh":8,
			"name":"\u4fa7\u7acb\u67f1",
			"skin":0
		},
		{
			"mesh":9,
			"name":"\u53f3\u4fa7\u73bb\u7483",
			"skin":0
		},
		{
			"mesh":10,
			"name":"\u5730\u677f",
			"skin":0
		},
		{
			"mesh":11,
			"name":"\u5899\u58c11",
			"skin":0
		},
		{
			"mesh":12,
			"name":"\u5899\u58c102",
			"skin":0
		},
		{
			"mesh":13,
			"name":"\u5899\u58c12",
			"skin":0
		},
		{
			"mesh":14,
			"name":"\u5c0f\u706f",
			"skin":0
		},
		{
			"mesh":15,
			"name":"\u5c0f\u706f.001",
			"skin":0
		},
		{
			"mesh":16,
			"name":"\u5de6\u4fa7\u73bb\u7483",
			"skin":0
		},
		{
			"mesh":17,
			"name":"\u5de6\u4fa7\u73bb\u7483.001",
			"skin":0
		},
		{
			"mesh":18,
			"name":"\u5efa\u7b511",
			"skin":0
		},
		{
			"mesh":19,
			"name":"\u5efa\u7b512",
			"skin":0
		},
		{
			"mesh":20,
			"name":"\u6697\u95e8",
			"skin":0
		},
		{
			"mesh":21,
			"name":"\u67f1\u5b50",
			"skin":0
		},
		{
			"mesh":22,
			"name":"\u6905\u5b50",
			"skin":0
		},
		{
			"mesh":23,
			"name":"\u706f",
			"skin":0
		},
		{
			"mesh":24,
			"name":"\u7a97\u6237",
			"skin":0
		},
		{
			"mesh":25,
			"name":"\u94fe\u6761",
			"skin":0
		},
		{
			"mesh":26,
			"name":"\u95e81",
			"skin":0
		},
		{
			"mesh":27,
			"name":"\u9636\u68af",
			"skin":0
		},
		{
			"children":[
				1,
				2,
				3,
				4,
				5,
				6,
				7,
				8,
				9,
				10,
				11,
				12,
				13,
				14,
				15,
				16,
				17,
				18,
				19,
				20,
				21,
				22,
				23,
				24,
				25,
				26,
				27,
				28,
				0
			],
			"name":"Church"
		},
		{
			"children":[
				29
			],
			"name":"Church.001"
		},
		{
			"mesh":28,
			"name":"Cube",
			"rotation":[
				0,
				0,
				0.9139395952224731,
				0.40585029125213623
			],
			"scale":[
				19.365299224853516,
				12.041257858276367,
				1.976919412612915
			],
			"translation":[
				-27.439212799072266,
				14.117778778076172,
				45.2859001159668
			]
		},
		{
			"mesh":29,
			"name":"Cube.001",
			"rotation":[
				0,
				0,
				0.9139395952224731,
				0.40585029125213623
			],
			"scale":[
				19.365299224853516,
				12.041257858276367,
				1.976919412612915
			],
			"translation":[
				-27.439212799072266,
				14.117778778076172,
				31.495813369750977
			]
		},
		{
			"mesh":30,
			"name":"Cube.002",
			"rotation":[
				0,
				0,
				0.9139395952224731,
				0.40585029125213623
			],
			"scale":[
				19.365299224853516,
				12.041257858276367,
				1.976919412612915
			],
			"translation":[
				-27.439212799072266,
				14.117778778076172,
				17.50054168701172
			]
		},
		{
			"mesh":31,
			"name":"Cube.003",
			"rotation":[
				0,
				0,
				0.9139395952224731,
				0.40585029125213623
			],
			"scale":[
				19.365299224853516,
				12.041257858276367,
				1.976919412612915
			],
			"translation":[
				-27.439212799072266,
				14.117778778076172,
				3.7934398651123047
			]
		},
		{
			"mesh":32,
			"name":"Cube.004",
			"rotation":[
				0,
				0,
				0.9139395952224731,
				0.40585029125213623
			],
			"scale":[
				19.365299224853516,
				12.041257858276367,
				1.976919412612915
			],
			"translation":[
				-27.439212799072266,
				14.117778778076172,
				-34.48438262939453
			]
		},
		{
			"mesh":33,
			"name":"Cube.005",
			"rotation":[
				0,
				0,
				0.9139395952224731,
				0.40585029125213623
			],
			"scale":[
				19.365299224853516,
				12.041257858276367,
				1.976919412612915
			],
			"translation":[
				-27.439212799072266,
				14.117778778076172,
				-49.46049880981445
			]
		},
		{
			"mesh":34,
			"name":"Cube.006",
			"rotation":[
				0,
				0,
				-0.871804416179657,
				0.4898541569709778
			],
			"scale":[
				19.365299224853516,
				12.041257858276367,
				1.976919412612915
			],
			"translation":[
				56.957767486572266,
				19.409894943237305,
				45.2859001159668
			]
		},
		{
			"mesh":35,
			"name":"Cube.007",
			"rotation":[
				0,
				0,
				-0.871804416179657,
				0.4898541569709778
			],
			"scale":[
				19.365299224853516,
				12.041257858276367,
				1.976919412612915
			],
			"translation":[
				56.957767486572266,
				19.409894943237305,
				31.545034408569336
			]
		},
		{
			"mesh":36,
			"name":"Cube.008",
			"rotation":[
				0,
				0,
				-0.871804416179657,
				0.4898541569709778
			],
			"scale":[
				19.365299224853516,
				12.041257858276367,
				1.976919412612915
			],
			"translation":[
				56.957767486572266,
				19.409894943237305,
				17.417024612426758
			]
		},
		{
			"mesh":37,
			"name":"Cube.009",
			"rotation":[
				0,
				0,
				-0.871804416179657,
				0.4898541569709778
			],
			"scale":[
				19.365299224853516,
				12.041257858276367,
				1.976919412612915
			],
			"translation":[
				56.957767486572266,
				19.409894943237305,
				3.9254727363586426
			]
		},
		{
			"mesh":38,
			"name":"Cube.010",
			"rotation":[
				0,
				0,
				-0.871804416179657,
				0.4898541569709778
			],
			"scale":[
				19.365299224853516,
				12.041257858276367,
				1.976919412612915
			],
			"translation":[
				56.957767486572266,
				19.409894943237305,
				-34.51597213745117
			]
		},
		{
			"mesh":39,
			"name":"Cube.011",
			"rotation":[
				0,
				0,
				-0.871804416179657,
				0.4898541569709778
			],
			"scale":[
				19.365299224853516,
				12.041257858276367,
				1.976919412612915
			],
			"translation":[
				56.957767486572266,
				19.409894943237305,
				-49.14290237426758
			]
		},
		{
			"name":"Empty",
			"translation":[
				-0.18765375018119812,
				3.3076515197753906,
				46.90574264526367
			]
		},
		{
			"mesh":40,
			"name":"\u7acb\u65b9\u4f53"
		},
		{
			"mesh":41,
			"name":"\u7acb\u65b9\u4f53.001",
			"scale":[
				35.54999923706055,
				25,
				70
			],
			"translation":[
				0,
				20.651107788085938,
				0
			]
		},
		{
			"name":"\u8f90\u5c04\u4f53\u79ef"
		}
	],
	"materials":[
		{
			"alphaMode":"BLEND",
			"doubleSided":true,
			"extensions":{
				"KHR_materials_specular":{
					"specularFactor":0
				},
				"KHR_materials_ior":{
					"ior":1
				}
			},
			"name":"\u6750\u8cea1",
			"pbrMetallicRoughness":{
				"baseColorTexture":{
					"index":0
				},
				"metallicFactor":0,
				"roughnessFactor":0.8500000238418579
			}
		},
		{
			"alphaMode":"BLEND",
			"doubleSided":true,
			"extensions":{
				"KHR_materials_specular":{
					"specularFactor":0
				},
				"KHR_materials_ior":{
					"ior":1
				}
			},
			"name":"\u6750\u8cea12",
			"pbrMetallicRoughness":{
				"baseColorTexture":{
					"index":1
				},
				"metallicFactor":0,
				"roughnessFactor":0.8500000238418579
			}
		},
		{
			"alphaMode":"BLEND",
			"doubleSided":true,
			"extensions":{
				"KHR_materials_specular":{
					"specularFactor":0
				},
				"KHR_materials_ior":{
					"ior":1
				}
			},
			"name":"\u6750\u8cea2",
			"pbrMetallicRoughness":{
				"baseColorTexture":{
					"index":2
				},
				"metallicFactor":0,
				"roughnessFactor":0.8500000238418579
			}
		},
		{
			"alphaMode":"BLEND",
			"doubleSided":true,
			"extensions":{
				"KHR_materials_specular":{
					"specularFactor":0
				},
				"KHR_materials_ior":{
					"ior":1
				}
			},
			"name":"\u6750\u8cea3",
			"pbrMetallicRoughness":{
				"baseColorTexture":{
					"index":3
				},
				"metallicFactor":0,
				"roughnessFactor":0.8500000238418579
			}
		},
		{
			"alphaMode":"BLEND",
			"doubleSided":true,
			"extensions":{
				"KHR_materials_specular":{
					"specularFactor":0.20000000298023224
				},
				"KHR_materials_ior":{
					"ior":1
				}
			},
			"name":"\u6750\u8cea4",
			"normalTexture":{
				"index":4
			},
			"pbrMetallicRoughness":{
				"baseColorTexture":{
					"index":5
				},
				"metallicRoughnessTexture":{
					"index":6
				}
			}
		},
		{
			"alphaMode":"BLEND",
			"doubleSided":true,
			"extensions":{
				"KHR_materials_specular":{
					"specularFactor":0.20000000298023224
				},
				"KHR_materials_ior":{
					"ior":1
				}
			},
			"name":"\u6750\u8cea19",
			"normalTexture":{
				"index":7
			},
			"pbrMetallicRoughness":{
				"baseColorTexture":{
					"index":8
				},
				"metallicRoughnessTexture":{
					"index":9
				}
			}
		},
		{
			"alphaMode":"BLEND",
			"doubleSided":true,
			"extensions":{
				"KHR_materials_specular":{
					"specularFactor":0.13636362552642822
				},
				"KHR_materials_ior":{
					"ior":1
				}
			},
			"name":"\u6750\u8cea5",
			"normalTexture":{
				"index":10
			},
			"pbrMetallicRoughness":{
				"baseColorTexture":{
					"index":11
				},
				"metallicRoughnessTexture":{
					"index":12
				}
			}
		},
		{
			"alphaMode":"BLEND",
			"doubleSided":true,
			"extensions":{
				"KHR_materials_clearcoat":{
					"clearcoatFactor":0.02500000037252903,
					"clearcoatRoughnessFactor":1
				},
				"KHR_materials_specular":{
					"specularFactor":0.4000000059604645,
					"specularColorTexture":{
						"index":13
					}
				},
				"KHR_materials_sheen":{
					"sheenColorFactor":[
						1.0,
						1.0,
						1.0
					],
					"sheenRoughnessFactor":0.5
				},
				"KHR_materials_ior":{
					"ior":1
				}
			},
			"name":"\u6750\u8cea13",
			"normalTexture":{
				"index":14
			},
			"pbrMetallicRoughness":{
				"baseColorTexture":{
					"index":15
				},
				"metallicRoughnessTexture":{
					"index":16
				}
			}
		},
		{
			"alphaMode":"BLEND",
			"doubleSided":true,
			"extensions":{
				"KHR_materials_specular":{
					"specularFactor":0
				},
				"KHR_materials_ior":{
					"ior":1
				}
			},
			"name":"\u6750\u8cea17",
			"normalTexture":{
				"index":17
			},
			"pbrMetallicRoughness":{
				"baseColorTexture":{
					"index":18
				},
				"metallicRoughnessTexture":{
					"index":19
				}
			}
		},
		{
			"alphaMode":"BLEND",
			"doubleSided":true,
			"emissiveFactor":[
				1,
				1,
				1
			],
			"emissiveTexture":{
				"index":20
			},
			"extensions":{
				"KHR_materials_specular":{
					"specularFactor":0.0020000000949949026
				},
				"KHR_materials_ior":{
					"ior":1
				}
			},
			"name":"\u6750\u8cea24",
			"pbrMetallicRoughness":{
				"baseColorTexture":{
					"index":21
				},
				"metallicFactor":0
			}
		},
		{
			"alphaMode":"BLEND",
			"doubleSided":true,
			"extensions":{
				"KHR_materials_clearcoat":{
					"clearcoatRoughnessFactor":0
				},
				"KHR_materials_specular":{
					"specularFactor":0.4000000059604645,
					"specularColorTexture":{
						"index":22
					}
				},
				"KHR_materials_sheen":{
					"sheenColorFactor":[
						1.0,
						1.0,
						1.0
					],
					"sheenRoughnessFactor":0.5
				},
				"KHR_materials_ior":{
					"ior":1
				}
			},
			"name":"\u6750\u8cea11",
			"normalTexture":{
				"index":23
			},
			"pbrMetallicRoughness":{
				"baseColorTexture":{
					"index":24
				},
				"metallicFactor":0,
				"metallicRoughnessTexture":{
					"index":25
				}
			}
		},
		{
			"alphaMode":"BLEND",
			"doubleSided":true,
			"extensions":{
				"KHR_materials_specular":{
					"specularFactor":0
				},
				"KHR_materials_ior":{
					"ior":1
				}
			},
			"name":"\u6750\u8cea14",
			"normalTexture":{
				"index":26
			},
			"pbrMetallicRoughness":{
				"baseColorTexture":{
					"index":27
				},
				"metallicRoughnessTexture":{
					"index":28
				}
			}
		},
		{
			"alphaMode":"BLEND",
			"doubleSided":true,
			"extensions":{
				"KHR_materials_specular":{
					"specularFactor":0.4000000059604645
				},
				"KHR_materials_ior":{
					"ior":1
				}
			},
			"name":"\u6750\u8cea20",
			"normalTexture":{
				"index":29
			},
			"pbrMetallicRoughness":{
				"baseColorTexture":{
					"index":30
				},
				"metallicFactor":0,
				"metallicRoughnessTexture":{
					"index":31
				}
			}
		},
		{
			"alphaMode":"BLEND",
			"doubleSided":true,
			"extensions":{
				"KHR_materials_specular":{
					"specularFactor":0.4000000059604645
				},
				"KHR_materials_ior":{
					"ior":1
				}
			},
			"name":"\u6750\u8cea22",
			"normalTexture":{
				"index":32
			},
			"pbrMetallicRoughness":{
				"baseColorTexture":{
					"index":33
				},
				"metallicFactor":0,
				"metallicRoughnessTexture":{
					"index":34
				}
			}
		},
		{
			"alphaMode":"BLEND",
			"doubleSided":true,
			"emissiveFactor":[
				1,
				0.34230589866638184,
				0.038957975804805756
			],
			"extensions":{
				"KHR_materials_emissive_strength":{
					"emissiveStrength":200
				},
				"KHR_materials_specular":{
					"specularFactor":0.0020000000949949026
				},
				"KHR_materials_ior":{
					"ior":1
				}
			},
			"name":"\u6750\u8cea16",
			"pbrMetallicRoughness":{
				"baseColorTexture":{
					"index":35
				},
				"roughnessFactor":0.3891238868236542
			}
		},
		{
			"alphaMode":"BLEND",
			"doubleSided":true,
			"emissiveFactor":[
				1,
				0.34230589866638184,
				0.038957975804805756
			],
			"extensions":{
				"KHR_materials_emissive_strength":{
					"emissiveStrength":100
				},
				"KHR_materials_specular":{
					"specularFactor":0.0020000000949949026
				},
				"KHR_materials_ior":{
					"ior":1
				}
			},
			"name":"\u6750\u8cea16.001",
			"pbrMetallicRoughness":{
				"baseColorTexture":{
					"index":36
				},
				"roughnessFactor":0.3891238868236542
			}
		},
		{
			"alphaMode":"BLEND",
			"doubleSided":true,
			"emissiveFactor":[
				1,
				1,
				1
			],
			"emissiveTexture":{
				"index":37
			},
			"name":"\u6750\u8cea15",
			"pbrMetallicRoughness":{
				"baseColorTexture":{
					"index":38
				},
				"metallicFactor":0
			}
		},
		{
			"alphaMode":"BLEND",
			"doubleSided":true,
			"emissiveFactor":[
				0.5,
				0.5,
				0.5
			],
			"emissiveTexture":{
				"index":39
			},
			"name":"\u6750\u8cea15.001",
			"pbrMetallicRoughness":{
				"baseColorTexture":{
					"index":40
				},
				"metallicFactor":0
			}
		},
		{
			"alphaMode":"BLEND",
			"doubleSided":true,
			"extensions":{
				"KHR_materials_specular":{
					"specularFactor":0.4000000059604645,
					"specularColorTexture":{
						"index":41
					}
				},
				"KHR_materials_ior":{
					"ior":1
				}
			},
			"name":"\u6750\u8cea21",
			"normalTexture":{
				"index":42
			},
			"pbrMetallicRoughness":{
				"baseColorTexture":{
					"index":43
				},
				"metallicFactor":0.10000000149011612,
				"metallicRoughnessTexture":{
					"index":44
				}
			}
		},
		{
			"alphaMode":"BLEND",
			"doubleSided":true,
			"extensions":{
				"KHR_materials_specular":{
					"specularFactor":0.4000000059604645
				},
				"KHR_materials_ior":{
					"ior":1
				}
			},
			"name":"\u6750\u8cea23",
			"normalTexture":{
				"index":45
			},
			"pbrMetallicRoughness":{
				"baseColorTexture":{
					"index":46
				},
				"metallicFactor":0,
				"metallicRoughnessTexture":{
					"index":47
				}
			}
		},
		{
			"alphaMode":"BLEND",
			"doubleSided":true,
			"extensions":{
				"KHR_materials_specular":{
					"specularFactor":0.4000000059604645
				},
				"KHR_materials_ior":{
					"ior":1
				}
			},
			"name":"\u6750\u8cea26",
			"normalTexture":{
				"index":48
			},
			"pbrMetallicRoughness":{
				"baseColorTexture":{
					"index":49
				},
				"metallicRoughnessTexture":{
					"index":50
				}
			}
		},
		{
			"alphaMode":"BLEND",
			"doubleSided":true,
			"extensions":{
				"KHR_materials_clearcoat":{
					"clearcoatFactor":0.0625,
					"clearcoatRoughnessFactor":0.5
				},
				"KHR_materials_specular":{
					"specularFactor":0.699999988079071,
					"specularColorTexture":{
						"index":51
					}
				},
				"KHR_materials_sheen":{
					"sheenColorFactor":[
						1.0,
						1.0,
						1.0
					],
					"sheenRoughnessFactor":0.5
				},
				"KHR_materials_ior":{
					"ior":1
				}
			},
			"name":"\u6750\u8cea18",
			"normalTexture":{
				"index":52
			},
			"pbrMetallicRoughness":{
				"baseColorTexture":{
					"index":53
				},
				"metallicRoughnessTexture":{
					"index":54
				}
			}
		},
		{
			"alphaMode":"BLEND",
			"doubleSided":true,
			"extensions":{
				"KHR_materials_specular":{
					"specularFactor":0.699999988079071,
					"specularColorTexture":{
						"index":55
					}
				},
				"KHR_materials_sheen":{
					"sheenColorFactor":[
						1.0,
						1.0,
						1.0
					],
					"sheenRoughnessFactor":0.5
				},
				"KHR_materials_ior":{
					"ior":1
				}
			},
			"name":"\u6750\u8cea8",
			"normalTexture":{
				"index":56
			},
			"pbrMetallicRoughness":{
				"baseColorTexture":{
					"index":57
				},
				"metallicRoughnessTexture":{
					"index":58
				}
			}
		},
		{
			"alphaMode":"BLEND",
			"doubleSided":true,
			"emissiveTexture":{
				"index":59
			},
			"extensions":{
				"KHR_materials_specular":{
					"specularFactor":0.4000000059604645
				},
				"KHR_materials_ior":{
					"ior":1
				}
			},
			"name":"\u6750\u8cea7",
			"normalTexture":{
				"index":60
			},
			"pbrMetallicRoughness":{
				"baseColorTexture":{
					"index":61
				},
				"metallicRoughnessTexture":{
					"index":62
				}
			}
		},
		{
			"alphaMode":"BLEND",
			"doubleSided":true,
			"emissiveTexture":{
				"index":63
			},
			"extensions":{
				"KHR_materials_specular":{
					"specularFactor":0.0020000000949949026
				},
				"KHR_materials_ior":{
					"ior":1
				}
			},
			"name":"\u6750\u8cea25",
			"pbrMetallicRoughness":{
				"baseColorTexture":{
					"index":64
				},
				"metallicFactor":0,
				"roughnessFactor":0.8500000238418579
			}
		},
		{
			"alphaMode":"BLEND",
			"doubleSided":true,
			"extensions":{
				"KHR_materials_specular":{
					"specularFactor":0.4000000059604645
				},
				"KHR_materials_ior":{
					"ior":1
				}
			},
			"name":"\u6750\u8cea9",
			"pbrMetallicRoughness":{
				"baseColorTexture":{
					"index":65
				},
				"roughnessFactor":0.25
			}
		},
		{
			"alphaMode":"BLEND",
			"doubleSided":true,
			"extensions":{
				"KHR_materials_specular":{
					"specularFactor":0.5
				},
				"KHR_materials_ior":{
					"ior":1
				}
			},
			"name":"\u6750\u8cea10",
			"normalTexture":{
				"index":66
			},
			"pbrMetallicRoughness":{
				"baseColorTexture":{
					"index":67
				},
				"metallicRoughnessTexture":{
					"index":68
				}
			}
		},
		{
			"alphaMode":"BLEND",
			"doubleSided":true,
			"name":"\u6750\u8cea6",
			"normalTexture":{
				"index":69
			},
			"pbrMetallicRoughness":{
				"baseColorTexture":{
					"index":70
				},
				"metallicRoughnessTexture":{
					"index":71
				}
			}
		},
		{
			"doubleSided":true,
			"name":"Material"
		},
		{
			"doubleSided":true,
			"name":"\u6750\u8d28"
		},
		{
			"doubleSided":true,
			"name":"\u6750\u8d28.001"
		}
	],
	"meshes":[
		{
			"name":"Church.001",
			"primitives":[
				{
					"attributes":{
						"POSITION":0,
						"NORMAL":1,
						"TEXCOORD_0":2,
						"JOINTS_0":3,
						"WEIGHTS_0":4
					},
					"indices":5,
					"material":0
				}
			]
		},
		{
			"name":"Church.012",
			"primitives":[
				{
					"attributes":{
						"POSITION":7,
						"NORMAL":8,
						"TEXCOORD_0":9,
						"JOINTS_0":10,
						"WEIGHTS_0":11
					},
					"indices":12,
					"material":1
				}
			]
		},
		{
			"name":"Church.002",
			"primitives":[
				{
					"attributes":{
						"POSITION":13,
						"NORMAL":14,
						"TEXCOORD_0":15,
						"JOINTS_0":16,
						"WEIGHTS_0":17
					},
					"indices":18,
					"material":2
				}
			]
		},
		{
			"name":"Church.003",
			"primitives":[
				{
					"attributes":{
						"POSITION":19,
						"NORMAL":20,
						"TEXCOORD_0":21,
						"JOINTS_0":22,
						"WEIGHTS_0":23
					},
					"indices":24,
					"material":3
				}
			]
		},
		{
			"name":"Church.004",
			"primitives":[
				{
					"attributes":{
						"POSITION":25,
						"NORMAL":26,
						"TEXCOORD_0":27,
						"JOINTS_0":28,
						"WEIGHTS_0":29
					},
					"indices":30,
					"material":4
				}
			]
		},
		{
			"name":"Church.019",
			"primitives":[
				{
					"attributes":{
						"POSITION":31,
						"NORMAL":32,
						"TEXCOORD_0":33,
						"JOINTS_0":34,
						"WEIGHTS_0":35
					},
					"indices":36,
					"material":5
				}
			]
		},
		{
			"name":"Church.005",
			"primitives":[
				{
					"attributes":{
						"POSITION":37,
						"NORMAL":38,
						"TEXCOORD_0":39,
						"JOINTS_0":40,
						"WEIGHTS_0":41
					},
					"indices":42,
					"material":6
				}
			]
		},
		{
			"name":"Church.013",
			"primitives":[
				{
					"attributes":{
						"POSITION":43,
						"NORMAL":44,
						"TEXCOORD_0":45,
						"JOINTS_0":46,
						"WEIGHTS_0":47
					},
					"indices":48,
					"material":7
				}
			]
		},
		{
			"name":"Church.017",
			"primitives":[
				{
					"attributes":{
						"POSITION":49,
						"NORMAL":50,
						"TEXCOORD_0":51,
						"JOINTS_0":52,
						"WEIGHTS_0":53
					},
					"indices":54,
					"material":8
				}
			]
		},
		{
			"name":"Church.024",
			"primitives":[
				{
					"attributes":{
						"POSITION":55,
						"NORMAL":56,
						"TEXCOORD_0":57,
						"JOINTS_0":58,
						"WEIGHTS_0":59
					},
					"indices":60,
					"material":9
				}
			]
		},
		{
			"name":"Church.011",
			"primitives":[
				{
					"attributes":{
						"POSITION":61,
						"NORMAL":62,
						"TEXCOORD_0":63,
						"JOINTS_0":64,
						"WEIGHTS_0":65
					},
					"indices":66,
					"material":10
				}
			]
		},
		{
			"name":"Church.014",
			"primitives":[
				{
					"attributes":{
						"POSITION":67,
						"NORMAL":68,
						"TEXCOORD_0":69,
						"JOINTS_0":70,
						"WEIGHTS_0":71
					},
					"indices":72,
					"material":11
				}
			]
		},
		{
			"name":"Church.020",
			"primitives":[
				{
					"attributes":{
						"POSITION":73,
						"NORMAL":74,
						"TEXCOORD_0":75,
						"JOINTS_0":76,
						"WEIGHTS_0":77
					},
					"indices":78,
					"material":12
				}
			]
		},
		{
			"name":"Church.022",
			"primitives":[
				{
					"attributes":{
						"POSITION":79,
						"NORMAL":80,
						"TEXCOORD_0":81,
						"JOINTS_0":82,
						"WEIGHTS_0":83
					},
					"indices":84,
					"material":13
				}
			]
		},
		{
			"name":"Church.016",
			"primitives":[
				{
					"attributes":{
						"POSITION":85,
						"NORMAL":86,
						"TEXCOORD_0":87,
						"JOINTS_0":88,
						"WEIGHTS_0":89
					},
					"indices":90,
					"material":14
				}
			]
		},
		{
			"name":"Church.028",
			"primitives":[
				{
					"attributes":{
						"POSITION":91,
						"NORMAL":92,
						"TEXCOORD_0":93,
						"JOINTS_0":94,
						"WEIGHTS_0":95
					},
					"indices":96,
					"material":15
				}
			]
		},
		{
			"name":"Church.015",
			"primitives":[
				{
					"attributes":{
						"POSITION":97,
						"NORMAL":98,
						"TEXCOORD_0":99,
						"JOINTS_0":100,
						"WEIGHTS_0":101
					},
					"indices":102,
					"material":16
				}
			]
		},
		{
			"name":"Church.026",
			"primitives":[
				{
					"attributes":{
						"POSITION":103,
						"NORMAL":104,
						"TEXCOORD_0":105,
						"JOINTS_0":106,
						"WEIGHTS_0":107
					},
					"indices":108,
					"material":17
				},
				{
					"attributes":{
						"POSITION":109,
						"NORMAL":110,
						"TEXCOORD_0":111,
						"JOINTS_0":112,
						"WEIGHTS_0":113
					},
					"indices":108,
					"material":9
				}
			]
		},
		{
			"name":"Church.021",
			"primitives":[
				{
					"attributes":{
						"POSITION":114,
						"NORMAL":115,
						"TEXCOORD_0":116,
						"JOINTS_0":117,
						"WEIGHTS_0":118
					},
					"indices":119,
					"material":18
				}
			]
		},
		{
			"name":"Church.023",
			"primitives":[
				{
					"attributes":{
						"POSITION":120,
						"NORMAL":121,
						"TEXCOORD_0":122,
						"JOINTS_0":123,
						"WEIGHTS_0":124
					},
					"indices":125,
					"material":19
				}
			]
		},
		{
			"name":"Church",
			"primitives":[
				{
					"attributes":{
						"POSITION":126,
						"NORMAL":127,
						"TEXCOORD_0":128,
						"JOINTS_0":129,
						"WEIGHTS_0":130
					},
					"indices":131,
					"material":20
				}
			]
		},
		{
			"name":"Church.018",
			"primitives":[
				{
					"attributes":{
						"POSITION":132,
						"NORMAL":133,
						"TEXCOORD_0":134,
						"JOINTS_0":135,
						"WEIGHTS_0":136
					},
					"indices":137,
					"material":21
				}
			]
		},
		{
			"name":"Church.008",
			"primitives":[
				{
					"attributes":{
						"POSITION":138,
						"NORMAL":139,
						"TEXCOORD_0":140,
						"JOINTS_0":141,
						"WEIGHTS_0":142
					},
					"indices":143,
					"material":22
				}
			]
		},
		{
			"name":"Church.007",
			"primitives":[
				{
					"attributes":{
						"POSITION":144,
						"NORMAL":145,
						"TEXCOORD_0":146,
						"JOINTS_0":147,
						"WEIGHTS_0":148
					},
					"indices":149,
					"material":23
				}
			]
		},
		{
			"name":"Church.025",
			"primitives":[
				{
					"attributes":{
						"POSITION":150,
						"NORMAL":151,
						"TEXCOORD_0":152,
						"JOINTS_0":153,
						"WEIGHTS_0":154
					},
					"indices":155,
					"material":24
				}
			]
		},
		{
			"name":"Church.009",
			"primitives":[
				{
					"attributes":{
						"POSITION":156,
						"NORMAL":157,
						"TEXCOORD_0":158,
						"JOINTS_0":159,
						"WEIGHTS_0":160
					},
					"indices":161,
					"material":25
				}
			]
		},
		{
			"name":"Church.010",
			"primitives":[
				{
					"attributes":{
						"POSITION":162,
						"NORMAL":163,
						"TEXCOORD_0":164,
						"JOINTS_0":165,
						"WEIGHTS_0":166
					},
					"indices":167,
					"material":26
				}
			]
		},
		{
			"name":"Church.006",
			"primitives":[
				{
					"attributes":{
						"POSITION":168,
						"NORMAL":169,
						"TEXCOORD_0":170,
						"JOINTS_0":171,
						"WEIGHTS_0":172
					},
					"indices":173,
					"material":27
				}
			]
		},
		{
			"name":"Cube",
			"primitives":[
				{
					"attributes":{
						"POSITION":174,
						"NORMAL":175,
						"TEXCOORD_0":176
					},
					"indices":177,
					"material":28
				}
			]
		},
		{
			"name":"Cube.001",
			"primitives":[
				{
					"attributes":{
						"POSITION":178,
						"NORMAL":179,
						"TEXCOORD_0":180
					},
					"indices":177,
					"material":28
				}
			]
		},
		{
			"name":"Cube.002",
			"primitives":[
				{
					"attributes":{
						"POSITION":181,
						"NORMAL":182,
						"TEXCOORD_0":183
					},
					"indices":177,
					"material":28
				}
			]
		},
		{
			"name":"Cube.004",
			"primitives":[
				{
					"attributes":{
						"POSITION":184,
						"NORMAL":185,
						"TEXCOORD_0":186
					},
					"indices":177,
					"material":28
				}
			]
		},
		{
			"name":"Cube.005",
			"primitives":[
				{
					"attributes":{
						"POSITION":187,
						"NORMAL":188,
						"TEXCOORD_0":189
					},
					"indices":177,
					"material":28
				}
			]
		},
		{
			"name":"Cube.007",
			"primitives":[
				{
					"attributes":{
						"POSITION":190,
						"NORMAL":191,
						"TEXCOORD_0":192
					},
					"indices":177,
					"material":28
				}
			]
		},
		{
			"name":"Cube.008",
			"primitives":[
				{
					"attributes":{
						"POSITION":193,
						"NORMAL":194,
						"TEXCOORD_0":195
					},
					"indices":196,
					"material":28
				}
			]
		},
		{
			"name":"Cube.009",
			"primitives":[
				{
					"attributes":{
						"POSITION":197,
						"NORMAL":198,
						"TEXCOORD_0":199
					},
					"indices":196,
					"material":28
				}
			]
		},
		{
			"name":"Cube.010",
			"primitives":[
				{
					"attributes":{
						"POSITION":200,
						"NORMAL":201,
						"TEXCOORD_0":202
					},
					"indices":196,
					"material":28
				}
			]
		},
		{
			"name":"Cube.011",
			"primitives":[
				{
					"attributes":{
						"POSITION":203,
						"NORMAL":204,
						"TEXCOORD_0":205
					},
					"indices":196,
					"material":28
				}
			]
		},
		{
			"name":"Cube.012",
			"primitives":[
				{
					"attributes":{
						"POSITION":206,
						"NORMAL":207,
						"TEXCOORD_0":208
					},
					"indices":196,
					"material":28
				}
			]
		},
		{
			"name":"Cube.013",
			"primitives":[
				{
					"attributes":{
						"POSITION":209,
						"NORMAL":210,
						"TEXCOORD_0":211
					},
					"indices":196,
					"material":28
				}
			]
		},
		{
			"name":"\u7acb\u65b9\u4f53",
			"primitives":[
				{
					"attributes":{
						"POSITION":212,
						"NORMAL":213,
						"TEXCOORD_0":214
					},
					"indices":215,
					"material":29
				}
			]
		},
		{
			"name":"\u7acb\u65b9\u4f53.001",
			"primitives":[
				{
					"attributes":{
						"POSITION":216,
						"NORMAL":217,
						"TEXCOORD_0":218
					},
					"indices":215,
					"material":30
				}
			]
		}
	],
	"textures":[
		{
			"sampler":0,
			"source":0
		},
		{
			"sampler":0,
			"source":1
		},
		{
			"sampler":0,
			"source":2
		},
		{
			"sampler":0,
			"source":2
		},
		{
			"sampler":0,
			"source":3
		},
		{
			"sampler":0,
			"source":4
		},
		{
			"sampler":0,
			"source":5
		},
		{
			"sampler":0,
			"source":3
		},
		{
			"sampler":0,
			"source":4
		},
		{
			"sampler":0,
			"source":5
		},
		{
			"sampler":0,
			"source":6
		},
		{
			"sampler":0,
			"source":7
		},
		{
			"sampler":0,
			"source":8
		},
		{
			"sampler":0,
			"source":9
		},
		{
			"sampler":0,
			"source":10
		},
		{
			"sampler":0,
			"source":11
		},
		{
			"sampler":0,
			"source":12
		},
		{
			"sampler":0,
			"source":13
		},
		{
			"sampler":0,
			"source":14
		},
		{
			"sampler":0,
			"source":15
		},
		{
			"sampler":0,
			"source":16
		},
		{
			"sampler":0,
			"source":16
		},
		{
			"sampler":0,
			"source":17
		},
		{
			"sampler":0,
			"source":18
		},
		{
			"sampler":0,
			"source":17
		},
		{
			"sampler":0,
			"source":19
		},
		{
			"sampler":0,
			"source":20
		},
		{
			"sampler":0,
			"source":21
		},
		{
			"sampler":0,
			"source":22
		},
		{
			"sampler":0,
			"source":23
		},
		{
			"sampler":0,
			"source":24
		},
		{
			"sampler":0,
			"source":25
		},
		{
			"sampler":0,
			"source":26
		},
		{
			"sampler":0,
			"source":27
		},
		{
			"sampler":0,
			"source":28
		},
		{
			"sampler":0,
			"source":29
		},
		{
			"sampler":0,
			"source":29
		},
		{
			"sampler":0,
			"source":30
		},
		{
			"sampler":0,
			"source":30
		},
		{
			"sampler":0,
			"source":30
		},
		{
			"sampler":0,
			"source":30
		},
		{
			"sampler":0,
			"source":31
		},
		{
			"sampler":0,
			"source":32
		},
		{
			"sampler":0,
			"source":31
		},
		{
			"sampler":0,
			"source":33
		},
		{
			"sampler":0,
			"source":34
		},
		{
			"sampler":0,
			"source":35
		},
		{
			"sampler":0,
			"source":36
		},
		{
			"sampler":0,
			"source":37
		},
		{
			"sampler":0,
			"source":38
		},
		{
			"sampler":0,
			"source":39
		},
		{
			"sampler":0,
			"source":40
		},
		{
			"sampler":0,
			"source":41
		},
		{
			"sampler":0,
			"source":42
		},
		{
			"sampler":0,
			"source":43
		},
		{
			"sampler":0,
			"source":44
		},
		{
			"sampler":0,
			"source":45
		},
		{
			"sampler":0,
			"source":46
		},
		{
			"sampler":0,
			"source":47
		},
		{
			"sampler":0,
			"source":48
		},
		{
			"sampler":0,
			"source":49
		},
		{
			"sampler":0,
			"source":48
		},
		{
			"sampler":0,
			"source":50
		},
		{
			"sampler":0,
			"source":16
		},
		{
			"sampler":0,
			"source":51
		},
		{
			"sampler":0,
			"source":52
		},
		{
			"sampler":0,
			"source":53
		},
		{
			"sampler":0,
			"source":54
		},
		{
			"sampler":0,
			"source":55
		},
		{
			"sampler":0,
			"source":37
		},
		{
			"sampler":0,
			"source":38
		},
		{
			"sampler":0,
			"source":39
		}
	],
	"images":[
		{
			"mimeType":"image/png",
			"name":"s (1)",
			"uri":"s%20%281%29.png"
		},
		{
			"mimeType":"image/png",
			"name":"j (1)",
			"uri":"j%20%281%29.png"
		},
		{
			"mimeType":"image/png",
			"name":"r (1)",
			"uri":"r%20%281%29.png"
		},
		{
			"mimeType":"image/png",
			"name":"T2",
			"uri":"T2.png"
		},
		{
			"mimeType":"image/png",
			"name":"t (1)",
			"uri":"t%20%281%29.png"
		},
		{
			"mimeType":"image/png",
			"name":"T3",
			"uri":"T3.png"
		},
		{
			"mimeType":"image/png",
			"name":"u2",
			"uri":"u2.png"
		},
		{
			"mimeType":"image/png",
			"name":"u (1)",
			"uri":"u%20%281%29.png"
		},
		{
			"mimeType":"image/png",
			"name":"u3",
			"uri":"u3.png"
		},
		{
			"mimeType":"image/png",
			"name":"i ilm",
			"uri":"i%20ilm.png"
		},
		{
			"mimeType":"image/png",
			"name":"IiN",
			"uri":"IiN.png"
		},
		{
			"mimeType":"image/png",
			"name":"i (1)",
			"uri":"i%20%281%29.png"
		},
		{
			"mimeType":"image/png",
			"name":"i ilm",
			"uri":"i%20ilm-1.png"
		},
		{
			"mimeType":"image/png",
			"name":"k3",
			"uri":"k3.png"
		},
		{
			"mimeType":"image/png",
			"name":"k (1)",
			"uri":"k%20%281%29.png"
		},
		{
			"mimeType":"image/png",
			"name":"k2",
			"uri":"k2.png"
		},
		{
			"mimeType":"image/png",
			"name":"glow 1",
			"uri":"glow%201.png"
		},
		{
			"mimeType":"image/png",
			"name":"d (1)",
			"uri":"d%20%281%29.png"
		},
		{
			"mimeType":"image/png",
			"name":"d3",
			"uri":"d3.png"
		},
		{
			"mimeType":"image/png",
			"name":"D ILM",
			"uri":"D%20ILM.png"
		},
		{
			"mimeType":"image/png",
			"name":"E3",
			"uri":"E3.png"
		},
		{
			"mimeType":"image/png",
			"name":"e (1)",
			"uri":"e%20%281%29.png"
		},
		{
			"mimeType":"image/png",
			"name":"E2",
			"uri":"E2.png"
		},
		{
			"mimeType":"image/png",
			"name":"a2",
			"uri":"a2.png"
		},
		{
			"mimeType":"image/png",
			"name":"a (1)",
			"uri":"a%20%281%29.png"
		},
		{
			"mimeType":"image/png",
			"name":"a3",
			"uri":"a3.png"
		},
		{
			"mimeType":"image/png",
			"name":"c3",
			"uri":"c3.png"
		},
		{
			"mimeType":"image/png",
			"name":"c (1)",
			"uri":"c%20%281%29.png"
		},
		{
			"mimeType":"image/png",
			"name":"c2",
			"uri":"c2.png"
		},
		{
			"mimeType":"image/png",
			"name":"q (1)",
			"uri":"q%20%281%29.png"
		},
		{
			"mimeType":"image/png",
			"name":"glow 2",
			"uri":"glow%202.png"
		},
		{
			"mimeType":"image/png",
			"name":"b (1)",
			"uri":"b%20%281%29.png"
		},
		{
			"mimeType":"image/png",
			"name":"b3",
			"uri":"b3.png"
		},
		{
			"mimeType":"image/png",
			"name":"b2",
			"uri":"b2.png"
		},
		{
			"mimeType":"image/png",
			"name":"L3",
			"uri":"L3.png"
		},
		{
			"mimeType":"image/png",
			"name":"l (1)",
			"uri":"l%20%281%29.png"
		},
		{
			"mimeType":"image/png",
			"name":"L2",
			"uri":"L2.png"
		},
		{
			"mimeType":"image/png",
			"name":"f3",
			"uri":"f3.png"
		},
		{
			"mimeType":"image/png",
			"name":"f (1)",
			"uri":"f%20%281%29.png"
		},
		{
			"mimeType":"image/png",
			"name":"f2",
			"uri":"f2.png"
		},
		{
			"mimeType":"image/png",
			"name":"n3",
			"uri":"n3.png"
		},
		{
			"mimeType":"image/png",
			"name":"n2",
			"uri":"n2.png"
		},
		{
			"mimeType":"image/png",
			"name":"n (1)",
			"uri":"n%20%281%29.png"
		},
		{
			"mimeType":"image/png",
			"name":"n3",
			"uri":"n3-1.png"
		},
		{
			"mimeType":"image/png",
			"name":"g3",
			"uri":"g3.png"
		},
		{
			"mimeType":"image/png",
			"name":"G2",
			"uri":"G2.png"
		},
		{
			"mimeType":"image/png",
			"name":"g (1)",
			"uri":"g%20%281%29.png"
		},
		{
			"mimeType":"image/png",
			"name":"g3",
			"uri":"g3-1.png"
		},
		{
			"mimeType":"image/png",
			"name":"o (1)",
			"uri":"o%20%281%29.png"
		},
		{
			"mimeType":"image/png",
			"name":"o3",
			"uri":"o3.png"
		},
		{
			"mimeType":"image/png",
			"name":"o2",
			"uri":"o2.png"
		},
		{
			"mimeType":"image/png",
			"name":"h (1)",
			"uri":"h%20%281%29.png"
		},
		{
			"mimeType":"image/png",
			"name":"p (1)",
			"uri":"p%20%281%29.png"
		},
		{
			"mimeType":"image/png",
			"name":"m2",
			"uri":"m2.png"
		},
		{
			"mimeType":"image/png",
			"name":"m (1)",
			"uri":"m%20%281%29.png"
		},
		{
			"mimeType":"image/png",
			"name":"m3",
			"uri":"m3.png"
		}
	],
	"skins":[
		{
			"inverseBindMatrices":6,
			"joints":[
				0
			],
			"name":"Church"
		}
	],
	"accessors":[
		{
			"bufferView":0,
			"componentType":5126,
			"count":1152,
			"max":[
				24.78662872314453,
				14.588271141052246,
				52.80141830444336
			],
			"min":[
				-24.84090232849121,
				7.41167688369751,
				-56.517372131347656
			],
			"type":"VEC3"
		},
		{
			"bufferView":1,
			"componentType":5126,
			"count":1152,
			"type":"VEC3"
		},
		{
			"bufferView":2,
			"componentType":5126,
			"count":1152,
			"type":"VEC2"
		},
		{
			"bufferView":3,
			"componentType":5121,
			"count":1152,
			"type":"VEC4"
		},
		{
			"bufferView":4,
			"componentType":5126,
			"count":1152,
			"type":"VEC4"
		},
		{
			"bufferView":5,
			"componentType":5123,
			"count":2304,
			"type":"SCALAR"
		},
		{
			"bufferView":6,
			"componentType":5126,
			"count":1,
			"type":"MAT4"
		},
		{
			"bufferView":7,
			"componentType":5126,
			"count":192,
			"max":[
				4.7857584953308105,
				5.693408489227295,
				-46.1538200378418
			],
			"min":[
				-4.840028762817383,
				5.476185321807861,
				-55.766029357910156
			],
			"type":"VEC3"
		},
		{
			"bufferView":8,
			"componentType":5126,
			"count":192,
			"type":"VEC3"
		},
		{
			"bufferView":9,
			"componentType":5126,
			"count":192,
			"type":"VEC2"
		},
		{
			"bufferView":10,
			"componentType":5121,
			"count":192,
			"type":"VEC4"
		},
		{
			"bufferView":11,
			"componentType":5126,
			"count":192,
			"type":"VEC4"
		},
		{
			"bufferView":12,
			"componentType":5123,
			"count":480,
			"type":"SCALAR"
		},
		{
			"bufferView":13,
			"componentType":5126,
			"count":2172,
			"max":[
				25.05358123779297,
				30.474258422851562,
				53.092864990234375
			],
			"min":[
				-25.107864379882812,
				13.907243728637695,
				-56.74908447265625
			],
			"type":"VEC3"
		},
		{
			"bufferView":14,
			"componentType":5126,
			"count":2172,
			"type":"VEC3"
		},
		{
			"bufferView":15,
			"componentType":5126,
			"count":2172,
			"type":"VEC2"
		},
		{
			"bufferView":16,
			"componentType":5121,
			"count":2172,
			"type":"VEC4"
		},
		{
			"bufferView":17,
			"componentType":5126,
			"count":2172,
			"type":"VEC4"
		},
		{
			"bufferView":18,
			"componentType":5123,
			"count":5616,
			"type":"SCALAR"
		},
		{
			"bufferView":19,
			"componentType":5126,
			"count":656,
			"max":[
				26.272663116455078,
				13.88213062286377,
				64.60140991210938
			],
			"min":[
				-26.20759391784668,
				13.467401504516602,
				57.43892288208008
			],
			"type":"VEC3"
		},
		{
			"bufferView":20,
			"componentType":5126,
			"count":656,
			"type":"VEC3"
		},
		{
			"bufferView":21,
			"componentType":5126,
			"count":656,
			"type":"VEC2"
		},
		{
			"bufferView":22,
			"componentType":5121,
			"count":656,
			"type":"VEC4"
		},
		{
			"bufferView":23,
			"componentType":5126,
			"count":656,
			"type":"VEC4"
		},
		{
			"bufferView":24,
			"componentType":5123,
			"count":1200,
			"type":"SCALAR"
		},
		{
			"bufferView":25,
			"componentType":5126,
			"count":6720,
			"max":[
				10.91211986541748,
				30.066293716430664,
				38.35198211669922
			],
			"min":[
				-10.966395378112793,
				10.310210227966309,
				10.51797866821289
			],
			"type":"VEC3"
		},
		{
			"bufferView":26,
			"componentType":5126,
			"count":6720,
			"type":"VEC3"
		},
		{
			"bufferView":27,
			"componentType":5126,
			"count":6720,
			"type":"VEC2"
		},
		{
			"bufferView":28,
			"componentType":5121,
			"count":6720,
			"type":"VEC4"
		},
		{
			"bufferView":29,
			"componentType":5126,
			"count":6720,
			"type":"VEC4"
		},
		{
			"bufferView":30,
			"componentType":5123,
			"count":33912,
			"type":"SCALAR"
		},
		{
			"bufferView":31,
			"componentType":5126,
			"count":1160,
			"max":[
				25.882593154907227,
				13.630449295043945,
				64.21135711669922
			],
			"min":[
				-25.817533493041992,
				4.169326305389404,
				57.69688034057617
			],
			"type":"VEC3"
		},
		{
			"bufferView":32,
			"componentType":5126,
			"count":1160,
			"type":"VEC3"
		},
		{
			"bufferView":33,
			"componentType":5126,
			"count":1160,
			"type":"VEC2"
		},
		{
			"bufferView":34,
			"componentType":5121,
			"count":1160,
			"type":"VEC4"
		},
		{
			"bufferView":35,
			"componentType":5126,
			"count":1160,
			"type":"VEC4"
		},
		{
			"bufferView":36,
			"componentType":5123,
			"count":5616,
			"type":"SCALAR"
		},
		{
			"bufferView":37,
			"componentType":5126,
			"count":984,
			"max":[
				22.5300350189209,
				2.336603879928589,
				65.4651107788086
			],
			"min":[
				-22.525102615356445,
				-0.05634016916155815,
				64.35437774658203
			],
			"type":"VEC3"
		},
		{
			"bufferView":38,
			"componentType":5126,
			"count":984,
			"type":"VEC3"
		},
		{
			"bufferView":39,
			"componentType":5126,
			"count":984,
			"type":"VEC2"
		},
		{
			"bufferView":40,
			"componentType":5121,
			"count":984,
			"type":"VEC4"
		},
		{
			"bufferView":41,
			"componentType":5126,
			"count":984,
			"type":"VEC4"
		},
		{
			"bufferView":42,
			"componentType":5123,
			"count":2196,
			"type":"SCALAR"
		},
		{
			"bufferView":43,
			"componentType":5126,
			"count":978,
			"max":[
				10.392879486083984,
				39.53300094604492,
				66.15151977539062
			],
			"min":[
				-10.447151184082031,
				-0.288134902715683,
				-45.339229583740234
			],
			"type":"VEC3"
		},
		{
			"bufferView":44,
			"componentType":5126,
			"count":978,
			"type":"VEC3"
		},
		{
			"bufferView":45,
			"componentType":5126,
			"count":978,
			"type":"VEC2"
		},
		{
			"bufferView":46,
			"componentType":5121,
			"count":978,
			"type":"VEC4"
		},
		{
			"bufferView":47,
			"componentType":5126,
			"count":978,
			"type":"VEC4"
		},
		{
			"bufferView":48,
			"componentType":5123,
			"count":1920,
			"type":"SCALAR"
		},
		{
			"bufferView":49,
			"componentType":5126,
			"count":5244,
			"max":[
				27.729480743408203,
				41.895320892333984,
				67.78658294677734
			],
			"min":[
				-27.78375816345215,
				-0.0563083179295063,
				-66.76303100585938
			],
			"type":"VEC3"
		},
		{
			"bufferView":50,
			"componentType":5126,
			"count":5244,
			"type":"VEC3"
		},
		{
			"bufferView":51,
			"componentType":5126,
			"count":5244,
			"type":"VEC2"
		},
		{
			"bufferView":52,
			"componentType":5121,
			"count":5244,
			"type":"VEC4"
		},
		{
			"bufferView":53,
			"componentType":5126,
			"count":5244,
			"type":"VEC4"
		},
		{
			"bufferView":54,
			"componentType":5123,
			"count":8652,
			"type":"SCALAR"
		},
		{
			"bufferView":55,
			"componentType":5126,
			"count":438,
			"max":[
				26.189212799072266,
				37.74089431762695,
				66.09722137451172
			],
			"min":[
				-21.410228729248047,
				5.683221817016602,
				-66.76303100585938
			],
			"type":"VEC3"
		},
		{
			"bufferView":56,
			"componentType":5126,
			"count":438,
			"type":"VEC3"
		},
		{
			"bufferView":57,
			"componentType":5126,
			"count":438,
			"type":"VEC2"
		},
		{
			"bufferView":58,
			"componentType":5121,
			"count":438,
			"type":"VEC4"
		},
		{
			"bufferView":59,
			"componentType":5126,
			"count":438,
			"type":"VEC4"
		},
		{
			"bufferView":60,
			"componentType":5123,
			"count":1164,
			"type":"SCALAR"
		},
		{
			"bufferView":61,
			"componentType":5126,
			"count":140,
			"max":[
				26.460752487182617,
				30.871158599853516,
				66.80318450927734
			],
			"min":[
				-26.515018463134766,
				-0.03894248232245445,
				-67.7134017944336
			],
			"type":"VEC3"
		},
		{
			"bufferView":62,
			"componentType":5126,
			"count":140,
			"type":"VEC3"
		},
		{
			"bufferView":63,
			"componentType":5126,
			"count":140,
			"type":"VEC2"
		},
		{
			"bufferView":64,
			"componentType":5121,
			"count":140,
			"type":"VEC4"
		},
		{
			"bufferView":65,
			"componentType":5126,
			"count":140,
			"type":"VEC4"
		},
		{
			"bufferView":66,
			"componentType":5123,
			"count":342,
			"type":"SCALAR"
		},
		{
			"bufferView":67,
			"componentType":5126,
			"count":53934,
			"max":[
				28.049198150634766,
				39.8859977722168,
				67.94361877441406
			],
			"min":[
				-28.04916763305664,
				-0.48689743876457214,
				-67.17034149169922
			],
			"type":"VEC3"
		},
		{
			"bufferView":68,
			"componentType":5126,
			"count":53934,
			"type":"VEC3"
		},
		{
			"bufferView":69,
			"componentType":5126,
			"count":53934,
			"type":"VEC2"
		},
		{
			"bufferView":70,
			"componentType":5121,
			"count":53934,
			"type":"VEC4"
		},
		{
			"bufferView":71,
			"componentType":5126,
			"count":53934,
			"type":"VEC4"
		},
		{
			"bufferView":72,
			"componentType":5123,
			"count":138744,
			"type":"SCALAR"
		},
		{
			"bufferView":73,
			"componentType":5126,
			"count":92,
			"max":[
				12.232504844665527,
				4.888995170593262,
				-42.0672721862793
			],
			"min":[
				-12.286776542663574,
				0.06040387228131294,
				-55.467342376708984
			],
			"type":"VEC3"
		},
		{
			"bufferView":74,
			"componentType":5126,
			"count":92,
			"type":"VEC3"
		},
		{
			"bufferView":75,
			"componentType":5126,
			"count":92,
			"type":"VEC2"
		},
		{
			"bufferView":76,
			"componentType":5121,
			"count":92,
			"type":"VEC4"
		},
		{
			"bufferView":77,
			"componentType":5126,
			"count":92,
			"type":"VEC4"
		},
		{
			"bufferView":78,
			"componentType":5123,
			"count":198,
			"type":"SCALAR"
		},
		{
			"bufferView":79,
			"componentType":5126,
			"count":1257,
			"max":[
				26.270679473876953,
				39.2071647644043,
				66.26012420654297
			],
			"min":[
				-26.352100372314453,
				2.331512212753296,
				-66.8445053100586
			],
			"type":"VEC3"
		},
		{
			"bufferView":80,
			"componentType":5126,
			"count":1257,
			"type":"VEC3"
		},
		{
			"bufferView":81,
			"componentType":5126,
			"count":1257,
			"type":"VEC2"
		},
		{
			"bufferView":82,
			"componentType":5121,
			"count":1257,
			"type":"VEC4"
		},
		{
			"bufferView":83,
			"componentType":5126,
			"count":1257,
			"type":"VEC4"
		},
		{
			"bufferView":84,
			"componentType":5123,
			"count":2706,
			"type":"SCALAR"
		},
		{
			"bufferView":85,
			"componentType":5126,
			"count":35443,
			"max":[
				24.529027938842773,
				24.422225952148438,
				60.72644805908203
			],
			"min":[
				-24.5903377532959,
				4.510955333709717,
				-36.16160583496094
			],
			"type":"VEC3"
		},
		{
			"bufferView":86,
			"componentType":5126,
			"count":35443,
			"type":"VEC3"
		},
		{
			"bufferView":87,
			"componentType":5126,
			"count":35443,
			"type":"VEC2"
		},
		{
			"bufferView":88,
			"componentType":5121,
			"count":35443,
			"type":"VEC4"
		},
		{
			"bufferView":89,
			"componentType":5126,
			"count":35443,
			"type":"VEC4"
		},
		{
			"bufferView":90,
			"componentType":5123,
			"count":82680,
			"type":"SCALAR"
		},
		{
			"bufferView":91,
			"componentType":5126,
			"count":16177,
			"max":[
				25.046720504760742,
				24.422225952148438,
				-41.05448913574219
			],
			"min":[
				-25.088010787963867,
				14.079337120056152,
				-61.6151008605957
			],
			"type":"VEC3"
		},
		{
			"bufferView":92,
			"componentType":5126,
			"count":16177,
			"type":"VEC3"
		},
		{
			"bufferView":93,
			"componentType":5126,
			"count":16177,
			"type":"VEC2"
		},
		{
			"bufferView":94,
			"componentType":5121,
			"count":16177,
			"type":"VEC4"
		},
		{
			"bufferView":95,
			"componentType":5126,
			"count":16177,
			"type":"VEC4"
		},
		{
			"bufferView":96,
			"componentType":5123,
			"count":37764,
			"type":"SCALAR"
		},
		{
			"bufferView":97,
			"componentType":5126,
			"count":252,
			"max":[
				-10.854449272155762,
				37.74089431762695,
				47.19862747192383
			],
			"min":[
				-26.270639419555664,
				5.683221817016602,
				-51.20429229736328
			],
			"type":"VEC3"
		},
		{
			"bufferView":98,
			"componentType":5126,
			"count":252,
			"type":"VEC3"
		},
		{
			"bufferView":99,
			"componentType":5126,
			"count":252,
			"type":"VEC2"
		},
		{
			"bufferView":100,
			"componentType":5121,
			"count":252,
			"type":"VEC4"
		},
		{
			"bufferView":101,
			"componentType":5126,
			"count":252,
			"type":"VEC4"
		},
		{
			"bufferView":102,
			"componentType":5123,
			"count":672,
			"type":"SCALAR"
		},
		{
			"bufferView":103,
			"componentType":5126,
			"count":14,
			"max":[
				-26.026264190673828,
				14.55212116241455,
				-12.337991714477539
			],
			"min":[
				-26.026264190673828,
				8.700614929199219,
				-18.712188720703125
			],
			"type":"VEC3"
		},
		{
			"bufferView":104,
			"componentType":5126,
			"count":14,
			"type":"VEC3"
		},
		{
			"bufferView":105,
			"componentType":5126,
			"count":14,
			"type":"VEC2"
		},
		{
			"bufferView":106,
			"componentType":5121,
			"count":14,
			"type":"VEC4"
		},
		{
			"bufferView":107,
			"componentType":5126,
			"count":14,
			"type":"VEC4"
		},
		{
			"bufferView":108,
			"componentType":5123,
			"count":36,
			"type":"SCALAR"
		},
		{
			"bufferView":109,
			"componentType":5126,
			"count":14,
			"max":[
				25.944833755493164,
				14.55212116241455,
				-12.337991714477539
			],
			"min":[
				25.944833755493164,
				8.700614929199219,
				-18.712188720703125
			],
			"type":"VEC3"
		},
		{
			"bufferView":110,
			"componentType":5126,
			"count":14,
			"type":"VEC3"
		},
		{
			"bufferView":111,
			"componentType":5126,
			"count":14,
			"type":"VEC2"
		},
		{
			"bufferView":112,
			"componentType":5121,
			"count":14,
			"type":"VEC4"
		},
		{
			"bufferView":113,
			"componentType":5126,
			"count":14,
			"type":"VEC4"
		},
		{
			"bufferView":114,
			"componentType":5126,
			"count":4479,
			"max":[
				26.51504898071289,
				39.53300094604492,
				66.26012420654297
			],
			"min":[
				-26.569326400756836,
				-2.3982226848602295,
				-67.06172943115234
			],
			"type":"VEC3"
		},
		{
			"bufferView":115,
			"componentType":5126,
			"count":4479,
			"type":"VEC3"
		},
		{
			"bufferView":116,
			"componentType":5126,
			"count":4479,
			"type":"VEC2"
		},
		{
			"bufferView":117,
			"componentType":5121,
			"count":4479,
			"type":"VEC4"
		},
		{
			"bufferView":118,
			"componentType":5126,
			"count":4479,
			"type":"VEC4"
		},
		{
			"bufferView":119,
			"componentType":5123,
			"count":11946,
			"type":"SCALAR"
		},
		{
			"bufferView":120,
			"componentType":5126,
			"count":381,
			"max":[
				26.270679473876953,
				39.69593048095703,
				66.2601318359375
			],
			"min":[
				-26.3249454498291,
				13.968324661254883,
				-66.76303100585938
			],
			"type":"VEC3"
		},
		{
			"bufferView":121,
			"componentType":5126,
			"count":381,
			"type":"VEC3"
		},
		{
			"bufferView":122,
			"componentType":5126,
			"count":381,
			"type":"VEC2"
		},
		{
			"bufferView":123,
			"componentType":5121,
			"count":381,
			"type":"VEC4"
		},
		{
			"bufferView":124,
			"componentType":5126,
			"count":381,
			"type":"VEC4"
		},
		{
			"bufferView":125,
			"componentType":5123,
			"count":924,
			"type":"SCALAR"
		},
		{
			"bufferView":126,
			"componentType":5126,
			"count":222,
			"max":[
				2.717026472091675,
				4.3764801025390625,
				-45.29197692871094
			],
			"min":[
				-2.7713000774383545,
				0.03139805793762207,
				-47.98448944091797
			],
			"type":"VEC3"
		},
		{
			"bufferView":127,
			"componentType":5126,
			"count":222,
			"type":"VEC3"
		},
		{
			"bufferView":128,
			"componentType":5126,
			"count":222,
			"type":"VEC2"
		},
		{
			"bufferView":129,
			"componentType":5121,
			"count":222,
			"type":"VEC4"
		},
		{
			"bufferView":130,
			"componentType":5126,
			"count":222,
			"type":"VEC4"
		},
		{
			"bufferView":131,
			"componentType":5123,
			"count":648,
			"type":"SCALAR"
		},
		{
			"bufferView":132,
			"componentType":5126,
			"count":38698,
			"max":[
				25.700454711914062,
				30.816848754882812,
				65.7713851928711
			],
			"min":[
				-25.754724502563477,
				-0.06788325309753418,
				-55.50149154663086
			],
			"type":"VEC3"
		},
		{
			"bufferView":133,
			"componentType":5126,
			"count":38698,
			"type":"VEC3"
		},
		{
			"bufferView":134,
			"componentType":5126,
			"count":38698,
			"type":"VEC2"
		},
		{
			"bufferView":135,
			"componentType":5121,
			"count":38698,
			"type":"VEC4"
		},
		{
			"bufferView":136,
			"componentType":5126,
			"count":38698,
			"type":"VEC4"
		},
		{
			"bufferView":137,
			"componentType":5123,
			"count":83424,
			"type":"SCALAR"
		},
		{
			"bufferView":138,
			"componentType":5126,
			"count":35649,
			"max":[
				12.571921348571777,
				23.445505142211914,
				48.24040603637695
			],
			"min":[
				-12.626190185546875,
				-0.05627131462097168,
				-67.92574310302734
			],
			"type":"VEC3"
		},
		{
			"bufferView":139,
			"componentType":5126,
			"count":35649,
			"type":"VEC3"
		},
		{
			"bufferView":140,
			"componentType":5126,
			"count":35649,
			"type":"VEC2"
		},
		{
			"bufferView":141,
			"componentType":5121,
			"count":35649,
			"type":"VEC4"
		},
		{
			"bufferView":142,
			"componentType":5126,
			"count":35649,
			"type":"VEC4"
		},
		{
			"bufferView":143,
			"componentType":5123,
			"count":77184,
			"type":"SCALAR"
		},
		{
			"bufferView":144,
			"componentType":5126,
			"count":10773,
			"max":[
				3.7335705757141113,
				39.158287048339844,
				49.065223693847656
			],
			"min":[
				-3.7980282306671143,
				15.7476167678833,
				-38.407283782958984
			],
			"type":"VEC3"
		},
		{
			"bufferView":145,
			"componentType":5126,
			"count":10773,
			"type":"VEC3"
		},
		{
			"bufferView":146,
			"componentType":5126,
			"count":10773,
			"type":"VEC2"
		},
		{
			"bufferView":147,
			"componentType":5121,
			"count":10773,
			"type":"VEC4"
		},
		{
			"bufferView":148,
			"componentType":5126,
			"count":10773,
			"type":"VEC4"
		},
		{
			"bufferView":149,
			"componentType":5123,
			"count":31932,
			"type":"SCALAR"
		},
		{
			"bufferView":150,
			"componentType":5126,
			"count":9043,
			"max":[
				26.433597564697266,
				38.31111145019531,
				66.47735595703125
			],
			"min":[
				-26.487869262695312,
				4.953485012054443,
				-66.89881134033203
			],
			"type":"VEC3"
		},
		{
			"bufferView":151,
			"componentType":5126,
			"count":9043,
			"type":"VEC3"
		},
		{
			"bufferView":152,
			"componentType":5126,
			"count":9043,
			"type":"VEC2"
		},
		{
			"bufferView":153,
			"componentType":5121,
			"count":9043,
			"type":"VEC4"
		},
		{
			"bufferView":154,
			"componentType":5126,
			"count":9043,
			"type":"VEC4"
		},
		{
			"bufferView":155,
			"componentType":5123,
			"count":22191,
			"type":"SCALAR"
		},
		{
			"bufferView":156,
			"componentType":5126,
			"count":192,
			"max":[
				1.8158819675445557,
				39.049678802490234,
				46.900611877441406
			],
			"min":[
				-0.9842848181724548,
				19.50790786743164,
				-36.24606704711914
			],
			"type":"VEC3"
		},
		{
			"bufferView":157,
			"componentType":5126,
			"count":192,
			"type":"VEC3"
		},
		{
			"bufferView":158,
			"componentType":5126,
			"count":192,
			"type":"VEC2"
		},
		{
			"bufferView":159,
			"componentType":5121,
			"count":192,
			"type":"VEC4"
		},
		{
			"bufferView":160,
			"componentType":5126,
			"count":192,
			"type":"VEC4"
		},
		{
			"bufferView":161,
			"componentType":5123,
			"count":288,
			"type":"SCALAR"
		},
		{
			"bufferView":162,
			"componentType":5126,
			"count":544,
			"max":[
				26.284250259399414,
				7.492305278778076,
				66.42304229736328
			],
			"min":[
				-26.365676879882812,
				-0.09835677593946457,
				-18.588306427001953
			],
			"type":"VEC3"
		},
		{
			"bufferView":163,
			"componentType":5126,
			"count":544,
			"type":"VEC3"
		},
		{
			"bufferView":164,
			"componentType":5126,
			"count":544,
			"type":"VEC2"
		},
		{
			"bufferView":165,
			"componentType":5121,
			"count":544,
			"type":"VEC4"
		},
		{
			"bufferView":166,
			"componentType":5126,
			"count":544,
			"type":"VEC4"
		},
		{
			"bufferView":167,
			"componentType":5123,
			"count":864,
			"type":"SCALAR"
		},
		{
			"bufferView":168,
			"componentType":5126,
			"count":1620,
			"max":[
				25.483234405517578,
				6.508004188537598,
				-41.60567855834961
			],
			"min":[
				-25.537508010864258,
				-3.0889346599578857,
				-66.68158721923828
			],
			"type":"VEC3"
		},
		{
			"bufferView":169,
			"componentType":5126,
			"count":1620,
			"type":"VEC3"
		},
		{
			"bufferView":170,
			"componentType":5126,
			"count":1620,
			"type":"VEC2"
		},
		{
			"bufferView":171,
			"componentType":5121,
			"count":1620,
			"type":"VEC4"
		},
		{
			"bufferView":172,
			"componentType":5126,
			"count":1620,
			"type":"VEC4"
		},
		{
			"bufferView":173,
			"componentType":5123,
			"count":3642,
			"type":"SCALAR"
		},
		{
			"bufferView":174,
			"componentType":5126,
			"count":140,
			"max":[
				1,
				1,
				1.9518706798553467
			],
			"min":[
				-1,
				-1,
				-1.9518706798553467
			],
			"type":"VEC3"
		},
		{
			"bufferView":175,
			"componentType":5126,
			"count":140,
			"type":"VEC3"
		},
		{
			"bufferView":176,
			"componentType":5126,
			"count":140,
			"type":"VEC2"
		},
		{
			"bufferView":177,
			"componentType":5123,
			"count":480,
			"type":"SCALAR"
		},
		{
			"bufferView":178,
			"componentType":5126,
			"count":140,
			"max":[
				1,
				1,
				1.9518706798553467
			],
			"min":[
				-1,
				-1,
				-1.9518706798553467
			],
			"type":"VEC3"
		},
		{
			"bufferView":179,
			"componentType":5126,
			"count":140,
			"type":"VEC3"
		},
		{
			"bufferView":180,
			"componentType":5126,
			"count":140,
			"type":"VEC2"
		},
		{
			"bufferView":181,
			"componentType":5126,
			"count":140,
			"max":[
				1,
				1,
				1.9518706798553467
			],
			"min":[
				-1,
				-1,
				-1.9518706798553467
			],
			"type":"VEC3"
		},
		{
			"bufferView":182,
			"componentType":5126,
			"count":140,
			"type":"VEC3"
		},
		{
			"bufferView":183,
			"componentType":5126,
			"count":140,
			"type":"VEC2"
		},
		{
			"bufferView":184,
			"componentType":5126,
			"count":140,
			"max":[
				1,
				1,
				1.9518706798553467
			],
			"min":[
				-1,
				-1,
				-1.9518706798553467
			],
			"type":"VEC3"
		},
		{
			"bufferView":185,
			"componentType":5126,
			"count":140,
			"type":"VEC3"
		},
		{
			"bufferView":186,
			"componentType":5126,
			"count":140,
			"type":"VEC2"
		},
		{
			"bufferView":187,
			"componentType":5126,
			"count":140,
			"max":[
				1,
				1,
				1.9518706798553467
			],
			"min":[
				-1,
				-1,
				-1.9518706798553467
			],
			"type":"VEC3"
		},
		{
			"bufferView":188,
			"componentType":5126,
			"count":140,
			"type":"VEC3"
		},
		{
			"bufferView":189,
			"componentType":5126,
			"count":140,
			"type":"VEC2"
		},
		{
			"bufferView":190,
			"componentType":5126,
			"count":140,
			"max":[
				1,
				1,
				1.9518706798553467
			],
			"min":[
				-1,
				-1,
				-1.9518706798553467
			],
			"type":"VEC3"
		},
		{
			"bufferView":191,
			"componentType":5126,
			"count":140,
			"type":"VEC3"
		},
		{
			"bufferView":192,
			"componentType":5126,
			"count":140,
			"type":"VEC2"
		},
		{
			"bufferView":193,
			"componentType":5126,
			"count":132,
			"max":[
				1,
				1,
				1
			],
			"min":[
				-1,
				-1,
				-1
			],
			"type":"VEC3"
		},
		{
			"bufferView":194,
			"componentType":5126,
			"count":132,
			"type":"VEC3"
		},
		{
			"bufferView":195,
			"componentType":5126,
			"count":132,
			"type":"VEC2"
		},
		{
			"bufferView":196,
			"componentType":5123,
			"count":480,
			"type":"SCALAR"
		},
		{
			"bufferView":197,
			"componentType":5126,
			"count":132,
			"max":[
				1,
				1,
				1
			],
			"min":[
				-1,
				-1,
				-1
			],
			"type":"VEC3"
		},
		{
			"bufferView":198,
			"componentType":5126,
			"count":132,
			"type":"VEC3"
		},
		{
			"bufferView":199,
			"componentType":5126,
			"count":132,
			"type":"VEC2"
		},
		{
			"bufferView":200,
			"componentType":5126,
			"count":132,
			"max":[
				1,
				1,
				1
			],
			"min":[
				-1,
				-1,
				-1
			],
			"type":"VEC3"
		},
		{
			"bufferView":201,
			"componentType":5126,
			"count":132,
			"type":"VEC3"
		},
		{
			"bufferView":202,
			"componentType":5126,
			"count":132,
			"type":"VEC2"
		},
		{
			"bufferView":203,
			"componentType":5126,
			"count":132,
			"max":[
				1,
				1,
				1
			],
			"min":[
				-1,
				-1,
				-1
			],
			"type":"VEC3"
		},
		{
			"bufferView":204,
			"componentType":5126,
			"count":132,
			"type":"VEC3"
		},
		{
			"bufferView":205,
			"componentType":5126,
			"count":132,
			"type":"VEC2"
		},
		{
			"bufferView":206,
			"componentType":5126,
			"count":132,
			"max":[
				1,
				1,
				1
			],
			"min":[
				-1,
				-1,
				-1
			],
			"type":"VEC3"
		},
		{
			"bufferView":207,
			"componentType":5126,
			"count":132,
			"type":"VEC3"
		},
		{
			"bufferView":208,
			"componentType":5126,
			"count":132,
			"type":"VEC2"
		},
		{
			"bufferView":209,
			"componentType":5126,
			"count":132,
			"max":[
				1,
				1,
				1
			],
			"min":[
				-1,
				-1,
				-1
			],
			"type":"VEC3"
		},
		{
			"bufferView":210,
			"componentType":5126,
			"count":132,
			"type":"VEC3"
		},
		{
			"bufferView":211,
			"componentType":5126,
			"count":132,
			"type":"VEC2"
		},
		{
			"bufferView":212,
			"componentType":5126,
			"count":24,
			"max":[
				1,
				1,
				1
			],
			"min":[
				-1,
				-1,
				-1
			],
			"type":"VEC3"
		},
		{
			"bufferView":213,
			"componentType":5126,
			"count":24,
			"type":"VEC3"
		},
		{
			"bufferView":214,
			"componentType":5126,
			"count":24,
			"type":"VEC2"
		},
		{
			"bufferView":215,
			"componentType":5123,
			"count":36,
			"type":"SCALAR"
		},
		{
			"bufferView":216,
			"componentType":5126,
			"count":24,
			"max":[
				1,
				1,
				1
			],
			"min":[
				-1,
				-1,
				-1
			],
			"type":"VEC3"
		},
		{
			"bufferView":217,
			"componentType":5126,
			"count":24,
			"type":"VEC3"
		},
		{
			"bufferView":218,
			"componentType":5126,
			"count":24,
			"type":"VEC2"
		}
	],
	"bufferViews":[
		{
			"buffer":0,
			"byteLength":13824,
			"byteOffset":0,
			"target":34962
		},
		{
			"buffer":0,
			"byteLength":13824,
			"byteOffset":13824,
			"target":34962
		},
		{
			"buffer":0,
			"byteLength":9216,
			"byteOffset":27648,
			"target":34962
		},
		{
			"buffer":0,
			"byteLength":4608,
			"byteOffset":36864,
			"target":34962
		},
		{
			"buffer":0,
			"byteLength":18432,
			"byteOffset":41472,
			"target":34962
		},
		{
			"buffer":0,
			"byteLength":4608,
			"byteOffset":59904,
			"target":34963
		},
		{
			"buffer":0,
			"byteLength":64,
			"byteOffset":64512
		},
		{
			"buffer":0,
			"byteLength":2304,
			"byteOffset":64576,
			"target":34962
		},
		{
			"buffer":0,
			"byteLength":2304,
			"byteOffset":66880,
			"target":34962
		},
		{
			"buffer":0,
			"byteLength":1536,
			"byteOffset":69184,
			"target":34962
		},
		{
			"buffer":0,
			"byteLength":768,
			"byteOffset":70720,
			"target":34962
		},
		{
			"buffer":0,
			"byteLength":3072,
			"byteOffset":71488,
			"target":34962
		},
		{
			"buffer":0,
			"byteLength":960,
			"byteOffset":74560,
			"target":34963
		},
		{
			"buffer":0,
			"byteLength":26064,
			"byteOffset":75520,
			"target":34962
		},
		{
			"buffer":0,
			"byteLength":26064,
			"byteOffset":101584,
			"target":34962
		},
		{
			"buffer":0,
			"byteLength":17376,
			"byteOffset":127648,
			"target":34962
		},
		{
			"buffer":0,
			"byteLength":8688,
			"byteOffset":145024,
			"target":34962
		},
		{
			"buffer":0,
			"byteLength":34752,
			"byteOffset":153712,
			"target":34962
		},
		{
			"buffer":0,
			"byteLength":11232,
			"byteOffset":188464,
			"target":34963
		},
		{
			"buffer":0,
			"byteLength":7872,
			"byteOffset":199696,
			"target":34962
		},
		{
			"buffer":0,
			"byteLength":7872,
			"byteOffset":207568,
			"target":34962
		},
		{
			"buffer":0,
			"byteLength":5248,
			"byteOffset":215440,
			"target":34962
		},
		{
			"buffer":0,
			"byteLength":2624,
			"byteOffset":220688,
			"target":34962
		},
		{
			"buffer":0,
			"byteLength":10496,
			"byteOffset":223312,
			"target":34962
		},
		{
			"buffer":0,
			"byteLength":2400,
			"byteOffset":233808,
			"target":34963
		},
		{
			"buffer":0,
			"byteLength":80640,
			"byteOffset":236208,
			"target":34962
		},
		{
			"buffer":0,
			"byteLength":80640,
			"byteOffset":316848,
			"target":34962
		},
		{
			"buffer":0,
			"byteLength":53760,
			"byteOffset":397488,
			"target":34962
		},
		{
			"buffer":0,
			"byteLength":26880,
			"byteOffset":451248,
			"target":34962
		},
		{
			"buffer":0,
			"byteLength":107520,
			"byteOffset":478128,
			"target":34962
		},
		{
			"buffer":0,
			"byteLength":67824,
			"byteOffset":585648,
			"target":34963
		},
		{
			"buffer":0,
			"byteLength":13920,
			"byteOffset":653472,
			"target":34962
		},
		{
			"buffer":0,
			"byteLength":13920,
			"byteOffset":667392,
			"target":34962
		},
		{
			"buffer":0,
			"byteLength":9280,
			"byteOffset":681312,
			"target":34962
		},
		{
			"buffer":0,
			"byteLength":4640,
			"byteOffset":690592,
			"target":34962
		},
		{
			"buffer":0,
			"byteLength":18560,
			"byteOffset":695232,
			"target":34962
		},
		{
			"buffer":0,
			"byteLength":11232,
			"byteOffset":713792,
			"target":34963
		},
		{
			"buffer":0,
			"byteLength":11808,
			"byteOffset":725024,
			"target":34962
		},
		{
			"buffer":0,
			"byteLength":11808,
			"byteOffset":736832,
			"target":34962
		},
		{
			"buffer":0,
			"byteLength":7872,
			"byteOffset":748640,
			"target":34962
		},
		{
			"buffer":0,
			"byteLength":3936,
			"byteOffset":756512,
			"target":34962
		},
		{
			"buffer":0,
			"byteLength":15744,
			"byteOffset":760448,
			"target":34962
		},
		{
			"buffer":0,
			"byteLength":4392,
			"byteOffset":776192,
			"target":34963
		},
		{
			"buffer":0,
			"byteLength":11736,
			"byteOffset":780584,
			"target":34962
		},
		{
			"buffer":0,
			"byteLength":11736,
			"byteOffset":792320,
			"target":34962
		},
		{
			"buffer":0,
			"byteLength":7824,
			"byteOffset":804056,
			"target":34962
		},
		{
			"buffer":0,
			"byteLength":3912,
			"byteOffset":811880,
			"target":34962
		},
		{
			"buffer":0,
			"byteLength":15648,
			"byteOffset":815792,
			"target":34962
		},
		{
			"buffer":0,
			"byteLength":3840,
			"byteOffset":831440,
			"target":34963
		},
		{
			"buffer":0,
			"byteLength":62928,
			"byteOffset":835280,
			"target":34962
		},
		{
			"buffer":0,
			"byteLength":62928,
			"byteOffset":898208,
			"target":34962
		},
		{
			"buffer":0,
			"byteLength":41952,
			"byteOffset":961136,
			"target":34962
		},
		{
			"buffer":0,
			"byteLength":20976,
			"byteOffset":1003088,
			"target":34962
		},
		{
			"buffer":0,
			"byteLength":83904,
			"byteOffset":1024064,
			"target":34962
		},
		{
			"buffer":0,
			"byteLength":17304,
			"byteOffset":1107968,
			"target":34963
		},
		{
			"buffer":0,
			"byteLength":5256,
			"byteOffset":1125272,
			"target":34962
		},
		{
			"buffer":0,
			"byteLength":5256,
			"byteOffset":1130528,
			"target":34962
		},
		{
			"buffer":0,
			"byteLength":3504,
			"byteOffset":1135784,
			"target":34962
		},
		{
			"buffer":0,
			"byteLength":1752,
			"byteOffset":1139288,
			"target":34962
		},
		{
			"buffer":0,
			"byteLength":7008,
			"byteOffset":1141040,
			"target":34962
		},
		{
			"buffer":0,
			"byteLength":2328,
			"byteOffset":1148048,
			"target":34963
		},
		{
			"buffer":0,
			"byteLength":1680,
			"byteOffset":1150376,
			"target":34962
		},
		{
			"buffer":0,
			"byteLength":1680,
			"byteOffset":1152056,
			"target":34962
		},
		{
			"buffer":0,
			"byteLength":1120,
			"byteOffset":1153736,
			"target":34962
		},
		{
			"buffer":0,
			"byteLength":560,
			"byteOffset":1154856,
			"target":34962
		},
		{
			"buffer":0,
			"byteLength":2240,
			"byteOffset":1155416,
			"target":34962
		},
		{
			"buffer":0,
			"byteLength":684,
			"byteOffset":1157656,
			"target":34963
		},
		{
			"buffer":0,
			"byteLength":647208,
			"byteOffset":1158340,
			"target":34962
		},
		{
			"buffer":0,
			"byteLength":647208,
			"byteOffset":1805548,
			"target":34962
		},
		{
			"buffer":0,
			"byteLength":431472,
			"byteOffset":2452756,
			"target":34962
		},
		{
			"buffer":0,
			"byteLength":215736,
			"byteOffset":2884228,
			"target":34962
		},
		{
			"buffer":0,
			"byteLength":862944,
			"byteOffset":3099964,
			"target":34962
		},
		{
			"buffer":0,
			"byteLength":277488,
			"byteOffset":3962908,
			"target":34963
		},
		{
			"buffer":0,
			"byteLength":1104,
			"byteOffset":4240396,
			"target":34962
		},
		{
			"buffer":0,
			"byteLength":1104,
			"byteOffset":4241500,
			"target":34962
		},
		{
			"buffer":0,
			"byteLength":736,
			"byteOffset":4242604,
			"target":34962
		},
		{
			"buffer":0,
			"byteLength":368,
			"byteOffset":4243340,
			"target":34962
		},
		{
			"buffer":0,
			"byteLength":1472,
			"byteOffset":4243708,
			"target":34962
		},
		{
			"buffer":0,
			"byteLength":396,
			"byteOffset":4245180,
			"target":34963
		},
		{
			"buffer":0,
			"byteLength":15084,
			"byteOffset":4245576,
			"target":34962
		},
		{
			"buffer":0,
			"byteLength":15084,
			"byteOffset":4260660,
			"target":34962
		},
		{
			"buffer":0,
			"byteLength":10056,
			"byteOffset":4275744,
			"target":34962
		},
		{
			"buffer":0,
			"byteLength":5028,
			"byteOffset":4285800,
			"target":34962
		},
		{
			"buffer":0,
			"byteLength":20112,
			"byteOffset":4290828,
			"target":34962
		},
		{
			"buffer":0,
			"byteLength":5412,
			"byteOffset":4310940,
			"target":34963
		},
		{
			"buffer":0,
			"byteLength":425316,
			"byteOffset":4316352,
			"target":34962
		},
		{
			"buffer":0,
			"byteLength":425316,
			"byteOffset":4741668,
			"target":34962
		},
		{
			"buffer":0,
			"byteLength":283544,
			"byteOffset":5166984,
			"target":34962
		},
		{
			"buffer":0,
			"byteLength":141772,
			"byteOffset":5450528,
			"target":34962
		},
		{
			"buffer":0,
			"byteLength":567088,
			"byteOffset":5592300,
			"target":34962
		},
		{
			"buffer":0,
			"byteLength":165360,
			"byteOffset":6159388,
			"target":34963
		},
		{
			"buffer":0,
			"byteLength":194124,
			"byteOffset":6324748,
			"target":34962
		},
		{
			"buffer":0,
			"byteLength":194124,
			"byteOffset":6518872,
			"target":34962
		},
		{
			"buffer":0,
			"byteLength":129416,
			"byteOffset":6712996,
			"target":34962
		},
		{
			"buffer":0,
			"byteLength":64708,
			"byteOffset":6842412,
			"target":34962
		},
		{
			"buffer":0,
			"byteLength":258832,
			"byteOffset":6907120,
			"target":34962
		},
		{
			"buffer":0,
			"byteLength":75528,
			"byteOffset":7165952,
			"target":34963
		},
		{
			"buffer":0,
			"byteLength":3024,
			"byteOffset":7241480,
			"target":34962
		},
		{
			"buffer":0,
			"byteLength":3024,
			"byteOffset":7244504,
			"target":34962
		},
		{
			"buffer":0,
			"byteLength":2016,
			"byteOffset":7247528,
			"target":34962
		},
		{
			"buffer":0,
			"byteLength":1008,
			"byteOffset":7249544,
			"target":34962
		},
		{
			"buffer":0,
			"byteLength":4032,
			"byteOffset":7250552,
			"target":34962
		},
		{
			"buffer":0,
			"byteLength":1344,
			"byteOffset":7254584,
			"target":34963
		},
		{
			"buffer":0,
			"byteLength":168,
			"byteOffset":7255928,
			"target":34962
		},
		{
			"buffer":0,
			"byteLength":168,
			"byteOffset":7256096,
			"target":34962
		},
		{
			"buffer":0,
			"byteLength":112,
			"byteOffset":7256264,
			"target":34962
		},
		{
			"buffer":0,
			"byteLength":56,
			"byteOffset":7256376,
			"target":34962
		},
		{
			"buffer":0,
			"byteLength":224,
			"byteOffset":7256432,
			"target":34962
		},
		{
			"buffer":0,
			"byteLength":72,
			"byteOffset":7256656,
			"target":34963
		},
		{
			"buffer":0,
			"byteLength":168,
			"byteOffset":7256728,
			"target":34962
		},
		{
			"buffer":0,
			"byteLength":168,
			"byteOffset":7256896,
			"target":34962
		},
		{
			"buffer":0,
			"byteLength":112,
			"byteOffset":7257064,
			"target":34962
		},
		{
			"buffer":0,
			"byteLength":56,
			"byteOffset":7257176,
			"target":34962
		},
		{
			"buffer":0,
			"byteLength":224,
			"byteOffset":7257232,
			"target":34962
		},
		{
			"buffer":0,
			"byteLength":53748,
			"byteOffset":7257456,
			"target":34962
		},
		{
			"buffer":0,
			"byteLength":53748,
			"byteOffset":7311204,
			"target":34962
		},
		{
			"buffer":0,
			"byteLength":35832,
			"byteOffset":7364952,
			"target":34962
		},
		{
			"buffer":0,
			"byteLength":17916,
			"byteOffset":7400784,
			"target":34962
		},
		{
			"buffer":0,
			"byteLength":71664,
			"byteOffset":7418700,
			"target":34962
		},
		{
			"buffer":0,
			"byteLength":23892,
			"byteOffset":7490364,
			"target":34963
		},
		{
			"buffer":0,
			"byteLength":4572,
			"byteOffset":7514256,
			"target":34962
		},
		{
			"buffer":0,
			"byteLength":4572,
			"byteOffset":7518828,
			"target":34962
		},
		{
			"buffer":0,
			"byteLength":3048,
			"byteOffset":7523400,
			"target":34962
		},
		{
			"buffer":0,
			"byteLength":1524,
			"byteOffset":7526448,
			"target":34962
		},
		{
			"buffer":0,
			"byteLength":6096,
			"byteOffset":7527972,
			"target":34962
		},
		{
			"buffer":0,
			"byteLength":1848,
			"byteOffset":7534068,
			"target":34963
		},
		{
			"buffer":0,
			"byteLength":2664,
			"byteOffset":7535916,
			"target":34962
		},
		{
			"buffer":0,
			"byteLength":2664,
			"byteOffset":7538580,
			"target":34962
		},
		{
			"buffer":0,
			"byteLength":1776,
			"byteOffset":7541244,
			"target":34962
		},
		{
			"buffer":0,
			"byteLength":888,
			"byteOffset":7543020,
			"target":34962
		},
		{
			"buffer":0,
			"byteLength":3552,
			"byteOffset":7543908,
			"target":34962
		},
		{
			"buffer":0,
			"byteLength":1296,
			"byteOffset":7547460,
			"target":34963
		},
		{
			"buffer":0,
			"byteLength":464376,
			"byteOffset":7548756,
			"target":34962
		},
		{
			"buffer":0,
			"byteLength":464376,
			"byteOffset":8013132,
			"target":34962
		},
		{
			"buffer":0,
			"byteLength":309584,
			"byteOffset":8477508,
			"target":34962
		},
		{
			"buffer":0,
			"byteLength":154792,
			"byteOffset":8787092,
			"target":34962
		},
		{
			"buffer":0,
			"byteLength":619168,
			"byteOffset":8941884,
			"target":34962
		},
		{
			"buffer":0,
			"byteLength":166848,
			"byteOffset":9561052,
			"target":34963
		},
		{
			"buffer":0,
			"byteLength":427788,
			"byteOffset":9727900,
			"target":34962
		},
		{
			"buffer":0,
			"byteLength":427788,
			"byteOffset":10155688,
			"target":34962
		},
		{
			"buffer":0,
			"byteLength":285192,
			"byteOffset":10583476,
			"target":34962
		},
		{
			"buffer":0,
			"byteLength":142596,
			"byteOffset":10868668,
			"target":34962
		},
		{
			"buffer":0,
			"byteLength":570384,
			"byteOffset":11011264,
			"target":34962
		},
		{
			"buffer":0,
			"byteLength":154368,
			"byteOffset":11581648,
			"target":34963
		},
		{
			"buffer":0,
			"byteLength":129276,
			"byteOffset":11736016,
			"target":34962
		},
		{
			"buffer":0,
			"byteLength":129276,
			"byteOffset":11865292,
			"target":34962
		},
		{
			"buffer":0,
			"byteLength":86184,
			"byteOffset":11994568,
			"target":34962
		},
		{
			"buffer":0,
			"byteLength":43092,
			"byteOffset":12080752,
			"target":34962
		},
		{
			"buffer":0,
			"byteLength":172368,
			"byteOffset":12123844,
			"target":34962
		},
		{
			"buffer":0,
			"byteLength":63864,
			"byteOffset":12296212,
			"target":34963
		},
		{
			"buffer":0,
			"byteLength":108516,
			"byteOffset":12360076,
			"target":34962
		},
		{
			"buffer":0,
			"byteLength":108516,
			"byteOffset":12468592,
			"target":34962
		},
		{
			"buffer":0,
			"byteLength":72344,
			"byteOffset":12577108,
			"target":34962
		},
		{
			"buffer":0,
			"byteLength":36172,
			"byteOffset":12649452,
			"target":34962
		},
		{
			"buffer":0,
			"byteLength":144688,
			"byteOffset":12685624,
			"target":34962
		},
		{
			"buffer":0,
			"byteLength":44382,
			"byteOffset":12830312,
			"target":34963
		},
		{
			"buffer":0,
			"byteLength":2304,
			"byteOffset":12874696,
			"target":34962
		},
		{
			"buffer":0,
			"byteLength":2304,
			"byteOffset":12877000,
			"target":34962
		},
		{
			"buffer":0,
			"byteLength":1536,
			"byteOffset":12879304,
			"target":34962
		},
		{
			"buffer":0,
			"byteLength":768,
			"byteOffset":12880840,
			"target":34962
		},
		{
			"buffer":0,
			"byteLength":3072,
			"byteOffset":12881608,
			"target":34962
		},
		{
			"buffer":0,
			"byteLength":576,
			"byteOffset":12884680,
			"target":34963
		},
		{
			"buffer":0,
			"byteLength":6528,
			"byteOffset":12885256,
			"target":34962
		},
		{
			"buffer":0,
			"byteLength":6528,
			"byteOffset":12891784,
			"target":34962
		},
		{
			"buffer":0,
			"byteLength":4352,
			"byteOffset":12898312,
			"target":34962
		},
		{
			"buffer":0,
			"byteLength":2176,
			"byteOffset":12902664,
			"target":34962
		},
		{
			"buffer":0,
			"byteLength":8704,
			"byteOffset":12904840,
			"target":34962
		},
		{
			"buffer":0,
			"byteLength":1728,
			"byteOffset":12913544,
			"target":34963
		},
		{
			"buffer":0,
			"byteLength":19440,
			"byteOffset":12915272,
			"target":34962
		},
		{
			"buffer":0,
			"byteLength":19440,
			"byteOffset":12934712,
			"target":34962
		},
		{
			"buffer":0,
			"byteLength":12960,
			"byteOffset":12954152,
			"target":34962
		},
		{
			"buffer":0,
			"byteLength":6480,
			"byteOffset":12967112,
			"target":34962
		},
		{
			"buffer":0,
			"byteLength":25920,
			"byteOffset":12973592,
			"target":34962
		},
		{
			"buffer":0,
			"byteLength":7284,
			"byteOffset":12999512,
			"target":34963
		},
		{
			"buffer":0,
			"byteLength":1680,
			"byteOffset":13006796,
			"target":34962
		},
		{
			"buffer":0,
			"byteLength":1680,
			"byteOffset":13008476,
			"target":34962
		},
		{
			"buffer":0,
			"byteLength":1120,
			"byteOffset":13010156,
			"target":34962
		},
		{
			"buffer":0,
			"byteLength":960,
			"byteOffset":13011276,
			"target":34963
		},
		{
			"buffer":0,
			"byteLength":1680,
			"byteOffset":13012236,
			"target":34962
		},
		{
			"buffer":0,
			"byteLength":1680,
			"byteOffset":13013916,
			"target":34962
		},
		{
			"buffer":0,
			"byteLength":1120,
			"byteOffset":13015596,
			"target":34962
		},
		{
			"buffer":0,
			"byteLength":1680,
			"byteOffset":13016716,
			"target":34962
		},
		{
			"buffer":0,
			"byteLength":1680,
			"byteOffset":13018396,
			"target":34962
		},
		{
			"buffer":0,
			"byteLength":1120,
			"byteOffset":13020076,
			"target":34962
		},
		{
			"buffer":0,
			"byteLength":1680,
			"byteOffset":13021196,
			"target":34962
		},
		{
			"buffer":0,
			"byteLength":1680,
			"byteOffset":13022876,
			"target":34962
		},
		{
			"buffer":0,
			"byteLength":1120,
			"byteOffset":13024556,
			"target":34962
		},
		{
			"buffer":0,
			"byteLength":1680,
			"byteOffset":13025676,
			"target":34962
		},
		{
			"buffer":0,
			"byteLength":1680,
			"byteOffset":13027356,
			"target":34962
		},
		{
			"buffer":0,
			"byteLength":1120,
			"byteOffset":13029036,
			"target":34962
		},
		{
			"buffer":0,
			"byteLength":1680,
			"byteOffset":13030156,
			"target":34962
		},
		{
			"buffer":0,
			"byteLength":1680,
			"byteOffset":13031836,
			"target":34962
		},
		{
			"buffer":0,
			"byteLength":1120,
			"byteOffset":13033516,
			"target":34962
		},
		{
			"buffer":0,
			"byteLength":1584,
			"byteOffset":13034636,
			"target":34962
		},
		{
			"buffer":0,
			"byteLength":1584,
			"byteOffset":13036220,
			"target":34962
		},
		{
			"buffer":0,
			"byteLength":1056,
			"byteOffset":13037804,
			"target":34962
		},
		{
			"buffer":0,
			"byteLength":960,
			"byteOffset":13038860,
			"target":34963
		},
		{
			"buffer":0,
			"byteLength":1584,
			"byteOffset":13039820,
			"target":34962
		},
		{
			"buffer":0,
			"byteLength":1584,
			"byteOffset":13041404,
			"target":34962
		},
		{
			"buffer":0,
			"byteLength":1056,
			"byteOffset":13042988,
			"target":34962
		},
		{
			"buffer":0,
			"byteLength":1584,
			"byteOffset":13044044,
			"target":34962
		},
		{
			"buffer":0,
			"byteLength":1584,
			"byteOffset":13045628,
			"target":34962
		},
		{
			"buffer":0,
			"byteLength":1056,
			"byteOffset":13047212,
			"target":34962
		},
		{
			"buffer":0,
			"byteLength":1584,
			"byteOffset":13048268,
			"target":34962
		},
		{
			"buffer":0,
			"byteLength":1584,
			"byteOffset":13049852,
			"target":34962
		},
		{
			"buffer":0,
			"byteLength":1056,
			"byteOffset":13051436,
			"target":34962
		},
		{
			"buffer":0,
			"byteLength":1584,
			"byteOffset":13052492,
			"target":34962
		},
		{
			"buffer":0,
			"byteLength":1584,
			"byteOffset":13054076,
			"target":34962
		},
		{
			"buffer":0,
			"byteLength":1056,
			"byteOffset":13055660,
			"target":34962
		},
		{
			"buffer":0,
			"byteLength":1584,
			"byteOffset":13056716,
			"target":34962
		},
		{
			"buffer":0,
			"byteLength":1584,
			"byteOffset":13058300,
			"target":34962
		},
		{
			"buffer":0,
			"byteLength":1056,
			"byteOffset":13059884,
			"target":34962
		},
		{
			"buffer":0,
			"byteLength":288,
			"byteOffset":13060940,
			"target":34962
		},
		{
			"buffer":0,
			"byteLength":288,
			"byteOffset":13061228,
			"target":34962
		},
		{
			"buffer":0,
			"byteLength":192,
			"byteOffset":13061516,
			"target":34962
		},
		{
			"buffer":0,
			"byteLength":72,
			"byteOffset":13061708,
			"target":34963
		},
		{
			"buffer":0,
			"byteLength":288,
			"byteOffset":13061780,
			"target":34962
		},
		{
			"buffer":0,
			"byteLength":288,
			"byteOffset":13062068,
			"target":34962
		},
		{
			"buffer":0,
			"byteLength":192,
			"byteOffset":13062356,
			"target":34962
		}
	],
	"samplers":[
		{
			"magFilter":9729,
			"minFilter":9987
		}
	],
	"buffers":[
		{
			"byteLength":13062548,
			"uri":"%E8%A5%BF%E9%A3%8E%E5%A4%A7%E6%95%99%E5%A0%82.bin"
		}
	]
}
